<mxfile host="app.diagrams.net" modified="2023-10-12T14:26:55.723Z" agent="Mozilla/5.0 (Macintosh; Intel Mac OS X 10_15_7) AppleWebKit/537.36 (KHTML, like Gecko) Chrome/116.0.0.0 Safari/537.36" etag="WFfOl82DDfr-xr0rIIHN" version="22.0.3" type="github">
  <diagram name="Page-1" id="GoSRVR4qmbdzTxvfHTVG">
    <mxGraphModel dx="3847" dy="1777" grid="1" gridSize="10" guides="1" tooltips="1" connect="1" arrows="1" fold="1" page="1" pageScale="1" pageWidth="827" pageHeight="1169" math="0" shadow="0">
      <root>
        <mxCell id="0" />
        <mxCell id="1" parent="0" />
        <mxCell id="dbq1p6qKIH94W6vMfUMa-104" style="edgeStyle=orthogonalEdgeStyle;rounded=0;orthogonalLoop=1;jettySize=auto;html=1;entryX=0.5;entryY=1;entryDx=0;entryDy=0;" edge="1" parent="1" source="dbq1p6qKIH94W6vMfUMa-102" target="dbq1p6qKIH94W6vMfUMa-30">
          <mxGeometry relative="1" as="geometry" />
        </mxCell>
        <mxCell id="dbq1p6qKIH94W6vMfUMa-101" style="edgeStyle=orthogonalEdgeStyle;rounded=0;orthogonalLoop=1;jettySize=auto;html=1;entryX=0.5;entryY=1;entryDx=0;entryDy=0;" edge="1" parent="1" source="dbq1p6qKIH94W6vMfUMa-99" target="dbq1p6qKIH94W6vMfUMa-100">
          <mxGeometry relative="1" as="geometry" />
        </mxCell>
        <mxCell id="dbq1p6qKIH94W6vMfUMa-98" style="edgeStyle=orthogonalEdgeStyle;rounded=0;orthogonalLoop=1;jettySize=auto;html=1;entryX=0.5;entryY=1;entryDx=0;entryDy=0;" edge="1" parent="1" source="dbq1p6qKIH94W6vMfUMa-96" target="dbq1p6qKIH94W6vMfUMa-95">
          <mxGeometry relative="1" as="geometry" />
        </mxCell>
        <mxCell id="KYdU5iYKhg4QgW7q9NT0-2" style="edgeStyle=orthogonalEdgeStyle;rounded=0;orthogonalLoop=1;jettySize=auto;html=1;exitX=0.5;exitY=1;exitDx=0;exitDy=0;entryX=0.5;entryY=0;entryDx=0;entryDy=0;" parent="1" source="vE4YfjciCCc4MwVa9jjc-8" edge="1">
          <mxGeometry relative="1" as="geometry">
            <mxPoint x="631" y="400" as="targetPoint" />
          </mxGeometry>
        </mxCell>
        <mxCell id="KYdU5iYKhg4QgW7q9NT0-10" style="edgeStyle=orthogonalEdgeStyle;rounded=0;orthogonalLoop=1;jettySize=auto;html=1;exitX=0.5;exitY=1;exitDx=0;exitDy=0;" parent="1" source="vE4YfjciCCc4MwVa9jjc-8" target="KYdU5iYKhg4QgW7q9NT0-4" edge="1">
          <mxGeometry relative="1" as="geometry" />
        </mxCell>
        <mxCell id="KYdU5iYKhg4QgW7q9NT0-11" style="edgeStyle=orthogonalEdgeStyle;rounded=0;orthogonalLoop=1;jettySize=auto;html=1;entryX=0.5;entryY=0;entryDx=0;entryDy=0;" parent="1" source="vE4YfjciCCc4MwVa9jjc-8" target="KYdU5iYKhg4QgW7q9NT0-6" edge="1">
          <mxGeometry relative="1" as="geometry" />
        </mxCell>
        <mxCell id="KYdU5iYKhg4QgW7q9NT0-12" style="edgeStyle=orthogonalEdgeStyle;rounded=0;orthogonalLoop=1;jettySize=auto;html=1;entryX=0.5;entryY=0;entryDx=0;entryDy=0;" parent="1" source="vE4YfjciCCc4MwVa9jjc-8" target="KYdU5iYKhg4QgW7q9NT0-9" edge="1">
          <mxGeometry relative="1" as="geometry" />
        </mxCell>
        <mxCell id="KYdU5iYKhg4QgW7q9NT0-13" style="edgeStyle=orthogonalEdgeStyle;rounded=0;orthogonalLoop=1;jettySize=auto;html=1;exitX=0.5;exitY=1;exitDx=0;exitDy=0;" parent="1" source="vE4YfjciCCc4MwVa9jjc-8" target="KYdU5iYKhg4QgW7q9NT0-7" edge="1">
          <mxGeometry relative="1" as="geometry" />
        </mxCell>
        <mxCell id="KYdU5iYKhg4QgW7q9NT0-14" style="edgeStyle=orthogonalEdgeStyle;rounded=0;orthogonalLoop=1;jettySize=auto;html=1;entryX=0.5;entryY=0;entryDx=0;entryDy=0;exitX=0.5;exitY=1;exitDx=0;exitDy=0;" parent="1" source="vE4YfjciCCc4MwVa9jjc-8" target="KYdU5iYKhg4QgW7q9NT0-8" edge="1">
          <mxGeometry relative="1" as="geometry" />
        </mxCell>
        <mxCell id="vE4YfjciCCc4MwVa9jjc-8" value="&lt;font size=&quot;1&quot; style=&quot;&quot;&gt;&lt;b style=&quot;font-size: 23px;&quot;&gt;Start&lt;/b&gt;&lt;/font&gt;" style="ellipse;whiteSpace=wrap;html=1;fillColor=#ffe6cc;strokeColor=#d79b00;" parent="1" vertex="1">
          <mxGeometry x="717" y="140" width="220" height="140" as="geometry" />
        </mxCell>
        <mxCell id="KYdU5iYKhg4QgW7q9NT0-38" style="edgeStyle=orthogonalEdgeStyle;rounded=0;orthogonalLoop=1;jettySize=auto;html=1;entryX=0.5;entryY=0;entryDx=0;entryDy=0;" parent="1" source="vE4YfjciCCc4MwVa9jjc-9" target="vE4YfjciCCc4MwVa9jjc-13" edge="1">
          <mxGeometry relative="1" as="geometry" />
        </mxCell>
        <mxCell id="KYdU5iYKhg4QgW7q9NT0-39" style="edgeStyle=orthogonalEdgeStyle;rounded=0;orthogonalLoop=1;jettySize=auto;html=1;entryX=0.5;entryY=0;entryDx=0;entryDy=0;" parent="1" source="vE4YfjciCCc4MwVa9jjc-9" target="vE4YfjciCCc4MwVa9jjc-11" edge="1">
          <mxGeometry relative="1" as="geometry">
            <Array as="points">
              <mxPoint x="1080" y="753" />
              <mxPoint x="1080" y="912" />
            </Array>
          </mxGeometry>
        </mxCell>
        <mxCell id="vE4YfjciCCc4MwVa9jjc-9" value="Currents and Winds Data available?" style="rhombus;whiteSpace=wrap;html=1;" parent="1" vertex="1">
          <mxGeometry x="747" y="680" width="160" height="145" as="geometry" />
        </mxCell>
        <mxCell id="ioeL2ronypjcJPAzhHYl-10" style="edgeStyle=orthogonalEdgeStyle;rounded=0;orthogonalLoop=1;jettySize=auto;html=1;entryX=1;entryY=0.5;entryDx=0;entryDy=0;entryPerimeter=0;" parent="1" source="vE4YfjciCCc4MwVa9jjc-11" target="ioeL2ronypjcJPAzhHYl-3" edge="1">
          <mxGeometry relative="1" as="geometry" />
        </mxCell>
        <mxCell id="vE4YfjciCCc4MwVa9jjc-11" value="Crop Data from existing Netcdfs" style="rounded=1;whiteSpace=wrap;html=1;" parent="1" vertex="1">
          <mxGeometry x="980" y="912" width="120" height="60" as="geometry" />
        </mxCell>
        <mxCell id="ioeL2ronypjcJPAzhHYl-13" style="edgeStyle=orthogonalEdgeStyle;rounded=0;orthogonalLoop=1;jettySize=auto;html=1;entryX=0.5;entryY=0;entryDx=0;entryDy=0;exitX=0.5;exitY=1;exitDx=0;exitDy=0;" parent="1" source="vE4YfjciCCc4MwVa9jjc-13" target="ioeL2ronypjcJPAzhHYl-8" edge="1">
          <mxGeometry relative="1" as="geometry">
            <mxPoint x="670" y="982" as="targetPoint" />
          </mxGeometry>
        </mxCell>
        <mxCell id="KYdU5iYKhg4QgW7q9NT0-40" style="edgeStyle=orthogonalEdgeStyle;rounded=0;orthogonalLoop=1;jettySize=auto;html=1;" parent="1" source="vE4YfjciCCc4MwVa9jjc-13" target="ioeL2ronypjcJPAzhHYl-7" edge="1">
          <mxGeometry relative="1" as="geometry" />
        </mxCell>
        <mxCell id="vE4YfjciCCc4MwVa9jjc-13" value="Download Data" style="rounded=1;whiteSpace=wrap;html=1;" parent="1" vertex="1">
          <mxGeometry x="540" y="792" width="120" height="60" as="geometry" />
        </mxCell>
        <mxCell id="vE4YfjciCCc4MwVa9jjc-15" value="&lt;h1&gt;Medslik-II Flowchart&lt;/h1&gt;&lt;p&gt;This flow chart presents Medslik in a detailed view about the Processes that occur from the beggining to the end.&lt;br&gt;&lt;br&gt;Consider that it has three main areas:&lt;br&gt;&lt;br&gt;- Pre Processing&lt;/p&gt;&lt;p&gt;- Oil Spill Simulation&lt;/p&gt;&lt;p&gt;- Post Processing&lt;/p&gt;" style="text;html=1;strokeColor=none;fillColor=none;spacing=5;spacingTop=-20;whiteSpace=wrap;overflow=hidden;rounded=0;" parent="1" vertex="1">
          <mxGeometry x="10" y="10" width="490" height="280" as="geometry" />
        </mxCell>
        <mxCell id="vlXNMCiZ7ui3RxLZUlmk-1" value="&lt;b&gt;&lt;font style=&quot;font-size: 15px;&quot;&gt;Yes&lt;/font&gt;&lt;/b&gt;" style="text;html=1;strokeColor=none;fillColor=none;align=center;verticalAlign=middle;whiteSpace=wrap;rounded=0;" parent="1" vertex="1">
          <mxGeometry x="1020" y="722" width="60" height="30" as="geometry" />
        </mxCell>
        <mxCell id="vlXNMCiZ7ui3RxLZUlmk-2" value="&lt;b&gt;&lt;font style=&quot;font-size: 15px;&quot;&gt;No&lt;/font&gt;&lt;/b&gt;" style="text;html=1;strokeColor=none;fillColor=none;align=center;verticalAlign=middle;whiteSpace=wrap;rounded=0;" parent="1" vertex="1">
          <mxGeometry x="600" y="722" width="60" height="30" as="geometry" />
        </mxCell>
        <mxCell id="KYdU5iYKhg4QgW7q9NT0-47" style="edgeStyle=orthogonalEdgeStyle;rounded=0;orthogonalLoop=1;jettySize=auto;html=1;entryX=0.5;entryY=0;entryDx=0;entryDy=0;" parent="1" source="ioeL2ronypjcJPAzhHYl-1" target="KYdU5iYKhg4QgW7q9NT0-46" edge="1">
          <mxGeometry relative="1" as="geometry" />
        </mxCell>
        <mxCell id="ioeL2ronypjcJPAzhHYl-1" value="Generate Bathymetry&lt;br&gt;GEBCO" style="rounded=1;whiteSpace=wrap;html=1;" parent="1" vertex="1">
          <mxGeometry x="767.5" y="1382" width="120" height="60" as="geometry" />
        </mxCell>
        <mxCell id="KYdU5iYKhg4QgW7q9NT0-21" style="edgeStyle=orthogonalEdgeStyle;rounded=0;orthogonalLoop=1;jettySize=auto;html=1;exitX=0.5;exitY=1;exitDx=0;exitDy=0;exitPerimeter=0;" parent="1" source="ioeL2ronypjcJPAzhHYl-2" edge="1">
          <mxGeometry relative="1" as="geometry">
            <mxPoint x="651.6999999999998" y="1252" as="targetPoint" />
          </mxGeometry>
        </mxCell>
        <mxCell id="KYdU5iYKhg4QgW7q9NT0-22" style="edgeStyle=orthogonalEdgeStyle;rounded=0;orthogonalLoop=1;jettySize=auto;html=1;entryX=0.5;entryY=0;entryDx=0;entryDy=0;" parent="1" source="ioeL2ronypjcJPAzhHYl-2" target="ioeL2ronypjcJPAzhHYl-6" edge="1">
          <mxGeometry relative="1" as="geometry" />
        </mxCell>
        <mxCell id="KYdU5iYKhg4QgW7q9NT0-25" style="edgeStyle=orthogonalEdgeStyle;rounded=0;orthogonalLoop=1;jettySize=auto;html=1;entryX=0.5;entryY=0;entryDx=0;entryDy=0;exitX=0.5;exitY=1;exitDx=0;exitDy=0;exitPerimeter=0;" parent="1" source="ioeL2ronypjcJPAzhHYl-2" target="ioeL2ronypjcJPAzhHYl-5" edge="1">
          <mxGeometry relative="1" as="geometry" />
        </mxCell>
        <mxCell id="ioeL2ronypjcJPAzhHYl-2" value="Marine / Sea State" style="shape=cylinder3;whiteSpace=wrap;html=1;boundedLbl=1;backgroundOutline=1;size=15;" parent="1" vertex="1">
          <mxGeometry x="791.5" y="1092" width="70" height="80" as="geometry" />
        </mxCell>
        <mxCell id="ioeL2ronypjcJPAzhHYl-3" value="Atmosphere" style="shape=cylinder3;whiteSpace=wrap;html=1;boundedLbl=1;backgroundOutline=1;size=15;" parent="1" vertex="1">
          <mxGeometry x="791.5" y="987" width="70" height="80" as="geometry" />
        </mxCell>
        <mxCell id="KYdU5iYKhg4QgW7q9NT0-42" style="edgeStyle=orthogonalEdgeStyle;rounded=0;orthogonalLoop=1;jettySize=auto;html=1;entryX=0.5;entryY=0;entryDx=0;entryDy=0;exitX=0.5;exitY=1;exitDx=0;exitDy=0;" parent="1" source="ioeL2ronypjcJPAzhHYl-4" target="ioeL2ronypjcJPAzhHYl-1" edge="1">
          <mxGeometry relative="1" as="geometry" />
        </mxCell>
        <mxCell id="ioeL2ronypjcJPAzhHYl-4" value="Currents&lt;br&gt;U and V components" style="rounded=1;whiteSpace=wrap;html=1;" parent="1" vertex="1">
          <mxGeometry x="592.5" y="1252" width="120" height="60" as="geometry" />
        </mxCell>
        <mxCell id="KYdU5iYKhg4QgW7q9NT0-32" style="edgeStyle=orthogonalEdgeStyle;rounded=0;orthogonalLoop=1;jettySize=auto;html=1;entryX=0.5;entryY=0;entryDx=0;entryDy=0;exitX=0.5;exitY=1;exitDx=0;exitDy=0;" parent="1" source="ioeL2ronypjcJPAzhHYl-5" target="ioeL2ronypjcJPAzhHYl-1" edge="1">
          <mxGeometry relative="1" as="geometry" />
        </mxCell>
        <mxCell id="ioeL2ronypjcJPAzhHYl-5" value="Winds&lt;br&gt;U and V components" style="rounded=1;whiteSpace=wrap;html=1;" parent="1" vertex="1">
          <mxGeometry x="941.5" y="1252" width="120" height="60" as="geometry" />
        </mxCell>
        <mxCell id="KYdU5iYKhg4QgW7q9NT0-31" style="edgeStyle=orthogonalEdgeStyle;rounded=0;orthogonalLoop=1;jettySize=auto;html=1;entryX=0.5;entryY=0;entryDx=0;entryDy=0;" parent="1" source="ioeL2ronypjcJPAzhHYl-6" target="ioeL2ronypjcJPAzhHYl-1" edge="1">
          <mxGeometry relative="1" as="geometry" />
        </mxCell>
        <mxCell id="ioeL2ronypjcJPAzhHYl-6" value="Sea Surface Temperature" style="rounded=1;whiteSpace=wrap;html=1;" parent="1" vertex="1">
          <mxGeometry x="767.5" y="1252" width="120" height="60" as="geometry" />
        </mxCell>
        <mxCell id="ioeL2ronypjcJPAzhHYl-7" value="COPERNICUS" style="rounded=1;whiteSpace=wrap;html=1;" parent="1" vertex="1">
          <mxGeometry x="450" y="912" width="120" height="60" as="geometry" />
        </mxCell>
        <mxCell id="ioeL2ronypjcJPAzhHYl-8" value="ECMWF" style="rounded=1;whiteSpace=wrap;html=1;" parent="1" vertex="1">
          <mxGeometry x="620" y="912" width="120" height="60" as="geometry" />
        </mxCell>
        <mxCell id="ioeL2ronypjcJPAzhHYl-15" style="edgeStyle=orthogonalEdgeStyle;rounded=0;orthogonalLoop=1;jettySize=auto;html=1;entryX=0;entryY=0.5;entryDx=0;entryDy=0;entryPerimeter=0;exitX=0.5;exitY=1;exitDx=0;exitDy=0;" parent="1" source="ioeL2ronypjcJPAzhHYl-7" target="ioeL2ronypjcJPAzhHYl-2" edge="1">
          <mxGeometry relative="1" as="geometry" />
        </mxCell>
        <mxCell id="ioeL2ronypjcJPAzhHYl-18" style="edgeStyle=orthogonalEdgeStyle;rounded=0;orthogonalLoop=1;jettySize=auto;html=1;entryX=1;entryY=0.5;entryDx=0;entryDy=0;entryPerimeter=0;" parent="1" source="vE4YfjciCCc4MwVa9jjc-11" target="ioeL2ronypjcJPAzhHYl-2" edge="1">
          <mxGeometry relative="1" as="geometry" />
        </mxCell>
        <mxCell id="ioeL2ronypjcJPAzhHYl-19" style="edgeStyle=orthogonalEdgeStyle;rounded=0;orthogonalLoop=1;jettySize=auto;html=1;exitX=0.5;exitY=1;exitDx=0;exitDy=0;exitPerimeter=0;entryX=0.5;entryY=0;entryDx=0;entryDy=0;entryPerimeter=0;" parent="1" source="ioeL2ronypjcJPAzhHYl-3" target="ioeL2ronypjcJPAzhHYl-2" edge="1">
          <mxGeometry relative="1" as="geometry" />
        </mxCell>
        <mxCell id="KYdU5iYKhg4QgW7q9NT0-37" style="edgeStyle=orthogonalEdgeStyle;rounded=0;orthogonalLoop=1;jettySize=auto;html=1;entryX=0.5;entryY=0;entryDx=0;entryDy=0;exitX=0.5;exitY=1;exitDx=0;exitDy=0;" parent="1" source="KYdU5iYKhg4QgW7q9NT0-1" target="vE4YfjciCCc4MwVa9jjc-9" edge="1">
          <mxGeometry relative="1" as="geometry" />
        </mxCell>
        <mxCell id="KYdU5iYKhg4QgW7q9NT0-1" value="Date&amp;nbsp;&lt;br&gt;+&lt;br&gt;Time" style="shape=parallelogram;perimeter=parallelogramPerimeter;whiteSpace=wrap;html=1;fixedSize=1;" parent="1" vertex="1">
          <mxGeometry x="586" y="400" width="90" height="50" as="geometry" />
        </mxCell>
        <mxCell id="KYdU5iYKhg4QgW7q9NT0-3" value="&lt;b&gt;&lt;font style=&quot;font-size: 15px;&quot;&gt;User Inputs&lt;/font&gt;&lt;/b&gt;" style="text;html=1;strokeColor=none;fillColor=none;align=center;verticalAlign=middle;whiteSpace=wrap;rounded=0;" parent="1" vertex="1">
          <mxGeometry x="750" y="300" width="72" height="40" as="geometry" />
        </mxCell>
        <mxCell id="KYdU5iYKhg4QgW7q9NT0-16" style="edgeStyle=orthogonalEdgeStyle;rounded=0;orthogonalLoop=1;jettySize=auto;html=1;exitX=0.5;exitY=1;exitDx=0;exitDy=0;entryX=0.5;entryY=0;entryDx=0;entryDy=0;" parent="1" source="KYdU5iYKhg4QgW7q9NT0-4" target="vE4YfjciCCc4MwVa9jjc-9" edge="1">
          <mxGeometry relative="1" as="geometry">
            <mxPoint x="816" y="540" as="targetPoint" />
          </mxGeometry>
        </mxCell>
        <mxCell id="KYdU5iYKhg4QgW7q9NT0-4" value="Latitude&lt;br&gt;+&lt;br&gt;Longitude" style="shape=parallelogram;perimeter=parallelogramPerimeter;whiteSpace=wrap;html=1;fixedSize=1;" parent="1" vertex="1">
          <mxGeometry x="670" y="400" width="90" height="50" as="geometry" />
        </mxCell>
        <mxCell id="KYdU5iYKhg4QgW7q9NT0-17" style="edgeStyle=orthogonalEdgeStyle;rounded=0;orthogonalLoop=1;jettySize=auto;html=1;entryX=0.5;entryY=0;entryDx=0;entryDy=0;" parent="1" source="KYdU5iYKhg4QgW7q9NT0-6" target="vE4YfjciCCc4MwVa9jjc-9" edge="1">
          <mxGeometry relative="1" as="geometry" />
        </mxCell>
        <mxCell id="KYdU5iYKhg4QgW7q9NT0-6" value="Oil Volume" style="shape=parallelogram;perimeter=parallelogramPerimeter;whiteSpace=wrap;html=1;fixedSize=1;" parent="1" vertex="1">
          <mxGeometry x="750" y="400" width="90" height="50" as="geometry" />
        </mxCell>
        <mxCell id="KYdU5iYKhg4QgW7q9NT0-19" style="edgeStyle=orthogonalEdgeStyle;rounded=0;orthogonalLoop=1;jettySize=auto;html=1;exitX=0.5;exitY=1;exitDx=0;exitDy=0;" parent="1" source="KYdU5iYKhg4QgW7q9NT0-7" target="vE4YfjciCCc4MwVa9jjc-9" edge="1">
          <mxGeometry relative="1" as="geometry" />
        </mxCell>
        <mxCell id="KYdU5iYKhg4QgW7q9NT0-7" value="Spill &lt;br&gt;Duration" style="shape=parallelogram;perimeter=parallelogramPerimeter;whiteSpace=wrap;html=1;fixedSize=1;" parent="1" vertex="1">
          <mxGeometry x="914" y="400" width="90" height="50" as="geometry" />
        </mxCell>
        <mxCell id="KYdU5iYKhg4QgW7q9NT0-20" style="edgeStyle=orthogonalEdgeStyle;rounded=0;orthogonalLoop=1;jettySize=auto;html=1;entryX=0.5;entryY=0;entryDx=0;entryDy=0;exitX=0.5;exitY=1;exitDx=0;exitDy=0;" parent="1" source="KYdU5iYKhg4QgW7q9NT0-8" target="vE4YfjciCCc4MwVa9jjc-9" edge="1">
          <mxGeometry relative="1" as="geometry" />
        </mxCell>
        <mxCell id="KYdU5iYKhg4QgW7q9NT0-8" value="Simulation&lt;br&gt;Length" style="shape=parallelogram;perimeter=parallelogramPerimeter;whiteSpace=wrap;html=1;fixedSize=1;" parent="1" vertex="1">
          <mxGeometry x="996" y="400" width="90" height="50" as="geometry" />
        </mxCell>
        <mxCell id="KYdU5iYKhg4QgW7q9NT0-18" style="edgeStyle=orthogonalEdgeStyle;rounded=0;orthogonalLoop=1;jettySize=auto;html=1;entryX=0.5;entryY=0;entryDx=0;entryDy=0;" parent="1" source="KYdU5iYKhg4QgW7q9NT0-9" target="vE4YfjciCCc4MwVa9jjc-9" edge="1">
          <mxGeometry relative="1" as="geometry" />
        </mxCell>
        <mxCell id="KYdU5iYKhg4QgW7q9NT0-9" value="Oil API" style="shape=parallelogram;perimeter=parallelogramPerimeter;whiteSpace=wrap;html=1;fixedSize=1;" parent="1" vertex="1">
          <mxGeometry x="831" y="400" width="90" height="50" as="geometry" />
        </mxCell>
        <mxCell id="KYdU5iYKhg4QgW7q9NT0-27" style="edgeStyle=orthogonalEdgeStyle;rounded=0;orthogonalLoop=1;jettySize=auto;html=1;entryX=0;entryY=0.5;entryDx=0;entryDy=0;entryPerimeter=0;" parent="1" source="ioeL2ronypjcJPAzhHYl-8" target="ioeL2ronypjcJPAzhHYl-3" edge="1">
          <mxGeometry relative="1" as="geometry">
            <Array as="points">
              <mxPoint x="759" y="942" />
              <mxPoint x="759" y="1027" />
            </Array>
          </mxGeometry>
        </mxCell>
        <mxCell id="KYdU5iYKhg4QgW7q9NT0-29" value="&lt;b&gt;&lt;font style=&quot;font-size: 15px;&quot;&gt;NetCDF&lt;/font&gt;&lt;/b&gt;" style="text;html=1;strokeColor=none;fillColor=none;align=center;verticalAlign=middle;whiteSpace=wrap;rounded=0;" parent="1" vertex="1">
          <mxGeometry x="528.5" y="1182" width="60" height="30" as="geometry" />
        </mxCell>
        <mxCell id="KYdU5iYKhg4QgW7q9NT0-34" value="&lt;h1&gt;&lt;font style=&quot;font-size: 20px;&quot;&gt;Generating bnc files&lt;/font&gt;&lt;/h1&gt;&lt;div&gt;In this section, the netCDF grids are used as a base to process bathymetry and coastline.&lt;/div&gt;&lt;div&gt;&lt;br&gt;&lt;/div&gt;&lt;div&gt;These are python scripts that do the processing&lt;/div&gt;" style="text;html=1;strokeColor=none;fillColor=none;spacing=5;spacingTop=-20;whiteSpace=wrap;overflow=hidden;rounded=0;" parent="1" vertex="1">
          <mxGeometry x="430" y="1382" width="230" height="170" as="geometry" />
        </mxCell>
        <mxCell id="KYdU5iYKhg4QgW7q9NT0-43" value="&lt;h1&gt;&lt;font style=&quot;font-size: 20px;&quot;&gt;Crop Files&lt;/font&gt;&lt;/h1&gt;&lt;div&gt;These examples are speceially for operational prodcts that have thei data in data warehouses and can be easily accessed&lt;/div&gt;" style="text;html=1;strokeColor=none;fillColor=none;spacing=5;spacingTop=-20;whiteSpace=wrap;overflow=hidden;rounded=0;" parent="1" vertex="1">
          <mxGeometry x="1146" y="887" width="190" height="280" as="geometry" />
        </mxCell>
        <mxCell id="KYdU5iYKhg4QgW7q9NT0-44" value="&lt;h1&gt;&lt;font style=&quot;font-size: 20px;&quot;&gt;Download Files&lt;/font&gt;&lt;/h1&gt;&lt;div&gt;Allow the user to use MEDSLIK-II in any Linux machine, since it can download and make the necessary pre processing to be able to run simulations&lt;/div&gt;" style="text;html=1;strokeColor=none;fillColor=none;spacing=5;spacingTop=-20;whiteSpace=wrap;overflow=hidden;rounded=0;" parent="1" vertex="1">
          <mxGeometry x="224" y="812" width="190" height="280" as="geometry" />
        </mxCell>
        <mxCell id="KYdU5iYKhg4QgW7q9NT0-45" value="&lt;h1&gt;&lt;font style=&quot;font-size: 20px;&quot;&gt;Inputs&lt;/font&gt;&lt;/h1&gt;&lt;div&gt;Values inserted by the user that will define all folowwing as pects of the simulation.&amp;nbsp;&lt;/div&gt;" style="text;html=1;strokeColor=none;fillColor=none;spacing=5;spacingTop=-20;whiteSpace=wrap;overflow=hidden;rounded=0;" parent="1" vertex="1">
          <mxGeometry x="1146" y="350" width="190" height="280" as="geometry" />
        </mxCell>
        <mxCell id="KYdU5iYKhg4QgW7q9NT0-52" style="edgeStyle=orthogonalEdgeStyle;rounded=0;orthogonalLoop=1;jettySize=auto;html=1;" parent="1" source="KYdU5iYKhg4QgW7q9NT0-46" target="KYdU5iYKhg4QgW7q9NT0-51" edge="1">
          <mxGeometry relative="1" as="geometry" />
        </mxCell>
        <mxCell id="KYdU5iYKhg4QgW7q9NT0-46" value="Generate Coastline&lt;br&gt;GSHHS" style="rounded=1;whiteSpace=wrap;html=1;" parent="1" vertex="1">
          <mxGeometry x="768" y="1482" width="120" height="60" as="geometry" />
        </mxCell>
        <mxCell id="KYdU5iYKhg4QgW7q9NT0-48" value="&lt;b&gt;&lt;font style=&quot;font-size: 15px;&quot;&gt;.bath&lt;/font&gt;&lt;/b&gt;" style="text;html=1;strokeColor=none;fillColor=none;align=center;verticalAlign=middle;whiteSpace=wrap;rounded=0;" parent="1" vertex="1">
          <mxGeometry x="682.5" y="1392" width="60" height="30" as="geometry" />
        </mxCell>
        <mxCell id="KYdU5iYKhg4QgW7q9NT0-49" value="&lt;b&gt;&lt;font style=&quot;font-size: 15px;&quot;&gt;.map&lt;/font&gt;&lt;/b&gt;" style="text;html=1;strokeColor=none;fillColor=none;align=center;verticalAlign=middle;whiteSpace=wrap;rounded=0;" parent="1" vertex="1">
          <mxGeometry x="683" y="1497" width="60" height="30" as="geometry" />
        </mxCell>
        <mxCell id="KYdU5iYKhg4QgW7q9NT0-50" value="&lt;h1&gt;&lt;span style=&quot;font-size: 20px;&quot;&gt;modify config1&lt;/span&gt;&lt;/h1&gt;&lt;div&gt;This txt file is responsible for collecting user inputs and it is read by other pre processing scripts to modify medslik fortran code before its compilation&lt;/div&gt;" style="text;html=1;strokeColor=none;fillColor=none;spacing=5;spacingTop=-20;whiteSpace=wrap;overflow=hidden;rounded=0;" parent="1" vertex="1">
          <mxGeometry x="963" y="1562" width="230" height="170" as="geometry" />
        </mxCell>
        <mxCell id="KYdU5iYKhg4QgW7q9NT0-56" style="edgeStyle=orthogonalEdgeStyle;rounded=0;orthogonalLoop=1;jettySize=auto;html=1;entryX=0.5;entryY=0;entryDx=0;entryDy=0;" parent="1" source="KYdU5iYKhg4QgW7q9NT0-51" target="KYdU5iYKhg4QgW7q9NT0-53" edge="1">
          <mxGeometry relative="1" as="geometry" />
        </mxCell>
        <mxCell id="KYdU5iYKhg4QgW7q9NT0-57" style="edgeStyle=orthogonalEdgeStyle;rounded=0;orthogonalLoop=1;jettySize=auto;html=1;entryX=0.5;entryY=0;entryDx=0;entryDy=0;" parent="1" source="KYdU5iYKhg4QgW7q9NT0-51" target="KYdU5iYKhg4QgW7q9NT0-54" edge="1">
          <mxGeometry relative="1" as="geometry" />
        </mxCell>
        <mxCell id="KYdU5iYKhg4QgW7q9NT0-51" value="modify&amp;nbsp;&lt;br&gt;config1" style="rounded=1;whiteSpace=wrap;html=1;" parent="1" vertex="1">
          <mxGeometry x="768" y="1592" width="120" height="60" as="geometry" />
        </mxCell>
        <mxCell id="KYdU5iYKhg4QgW7q9NT0-60" style="edgeStyle=orthogonalEdgeStyle;rounded=0;orthogonalLoop=1;jettySize=auto;html=1;entryX=0.5;entryY=0;entryDx=0;entryDy=0;" parent="1" source="KYdU5iYKhg4QgW7q9NT0-53" edge="1">
          <mxGeometry relative="1" as="geometry">
            <mxPoint x="827" y="1842" as="targetPoint" />
          </mxGeometry>
        </mxCell>
        <mxCell id="KYdU5iYKhg4QgW7q9NT0-53" value="modify&amp;nbsp;&lt;br&gt;medslik_II.for" style="rounded=1;whiteSpace=wrap;html=1;" parent="1" vertex="1">
          <mxGeometry x="680" y="1712" width="120" height="60" as="geometry" />
        </mxCell>
        <mxCell id="KYdU5iYKhg4QgW7q9NT0-61" style="edgeStyle=orthogonalEdgeStyle;rounded=0;orthogonalLoop=1;jettySize=auto;html=1;entryX=0.5;entryY=0;entryDx=0;entryDy=0;" parent="1" source="KYdU5iYKhg4QgW7q9NT0-54" edge="1">
          <mxGeometry relative="1" as="geometry">
            <mxPoint x="827" y="1842" as="targetPoint" />
          </mxGeometry>
        </mxCell>
        <mxCell id="KYdU5iYKhg4QgW7q9NT0-54" value="modify&amp;nbsp;&lt;br&gt;Extract_II.for" style="rounded=1;whiteSpace=wrap;html=1;" parent="1" vertex="1">
          <mxGeometry x="854" y="1712" width="120" height="60" as="geometry" />
        </mxCell>
        <mxCell id="KYdU5iYKhg4QgW7q9NT0-58" value="&lt;h1&gt;&lt;span style=&quot;font-size: 20px;&quot;&gt;modify fortran files&lt;/span&gt;&lt;/h1&gt;&lt;div&gt;Either medlisk fortran conde and another necessary counterparts are updated according to the grid and user inputs in previous steps.&lt;br&gt;&lt;br&gt;Some of these modifications are being simplified&lt;/div&gt;" style="text;html=1;strokeColor=none;fillColor=none;spacing=5;spacingTop=-20;whiteSpace=wrap;overflow=hidden;rounded=0;" parent="1" vertex="1">
          <mxGeometry x="423" y="1702" width="230" height="170" as="geometry" />
        </mxCell>
        <mxCell id="KYdU5iYKhg4QgW7q9NT0-63" style="edgeStyle=orthogonalEdgeStyle;rounded=0;orthogonalLoop=1;jettySize=auto;html=1;" parent="1" source="KYdU5iYKhg4QgW7q9NT0-59" target="KYdU5iYKhg4QgW7q9NT0-62" edge="1">
          <mxGeometry relative="1" as="geometry" />
        </mxCell>
        <mxCell id="KYdU5iYKhg4QgW7q9NT0-59" value="Copying or linking all config files, executables, asc files and netcdfs to Medslik source directory" style="rounded=1;whiteSpace=wrap;html=1;" parent="1" vertex="1">
          <mxGeometry x="739" y="1842" width="175" height="106" as="geometry" />
        </mxCell>
        <mxCell id="KYdU5iYKhg4QgW7q9NT0-69" style="edgeStyle=orthogonalEdgeStyle;rounded=0;orthogonalLoop=1;jettySize=auto;html=1;entryX=0.5;entryY=0;entryDx=0;entryDy=0;exitX=0.5;exitY=1;exitDx=0;exitDy=0;" parent="1" source="KYdU5iYKhg4QgW7q9NT0-62" target="KYdU5iYKhg4QgW7q9NT0-64" edge="1">
          <mxGeometry relative="1" as="geometry" />
        </mxCell>
        <mxCell id="KYdU5iYKhg4QgW7q9NT0-70" style="edgeStyle=orthogonalEdgeStyle;rounded=0;orthogonalLoop=1;jettySize=auto;html=1;entryX=0.5;entryY=0;entryDx=0;entryDy=0;" parent="1" source="KYdU5iYKhg4QgW7q9NT0-62" target="KYdU5iYKhg4QgW7q9NT0-66" edge="1">
          <mxGeometry relative="1" as="geometry" />
        </mxCell>
        <mxCell id="KYdU5iYKhg4QgW7q9NT0-71" style="edgeStyle=orthogonalEdgeStyle;rounded=0;orthogonalLoop=1;jettySize=auto;html=1;" parent="1" source="KYdU5iYKhg4QgW7q9NT0-62" target="KYdU5iYKhg4QgW7q9NT0-67" edge="1">
          <mxGeometry relative="1" as="geometry" />
        </mxCell>
        <mxCell id="KYdU5iYKhg4QgW7q9NT0-72" style="edgeStyle=orthogonalEdgeStyle;rounded=0;orthogonalLoop=1;jettySize=auto;html=1;exitX=0.5;exitY=1;exitDx=0;exitDy=0;" parent="1" source="KYdU5iYKhg4QgW7q9NT0-62" target="KYdU5iYKhg4QgW7q9NT0-68" edge="1">
          <mxGeometry relative="1" as="geometry" />
        </mxCell>
        <mxCell id="KYdU5iYKhg4QgW7q9NT0-62" value="Compile all fortran code" style="rounded=1;whiteSpace=wrap;html=1;" parent="1" vertex="1">
          <mxGeometry x="766" y="1992" width="120" height="60" as="geometry" />
        </mxCell>
        <mxCell id="KYdU5iYKhg4QgW7q9NT0-77" style="edgeStyle=orthogonalEdgeStyle;rounded=0;orthogonalLoop=1;jettySize=auto;html=1;entryX=0.5;entryY=0;entryDx=0;entryDy=0;" parent="1" source="KYdU5iYKhg4QgW7q9NT0-64" target="KYdU5iYKhg4QgW7q9NT0-73" edge="1">
          <mxGeometry relative="1" as="geometry" />
        </mxCell>
        <mxCell id="KYdU5iYKhg4QgW7q9NT0-64" value="Extract_II.for" style="rounded=1;whiteSpace=wrap;html=1;" parent="1" vertex="1">
          <mxGeometry x="539" y="2102" width="120" height="60" as="geometry" />
        </mxCell>
        <mxCell id="KYdU5iYKhg4QgW7q9NT0-65" value="&lt;p style=&quot;line-height: 90%;&quot;&gt;&lt;/p&gt;&lt;h1 style=&quot;line-height: 110%;&quot;&gt;&lt;span style=&quot;background-color: initial; font-size: 20px;&quot;&gt;Compilation&lt;/span&gt;&lt;/h1&gt;&lt;h1 style=&quot;line-height: 50%;&quot;&gt;&lt;span style=&quot;font-size: 12px; font-weight: 400;&quot;&gt;In here the following .for are compiled into executables&lt;/span&gt;&lt;/h1&gt;&lt;p&gt;&lt;/p&gt;" style="text;html=1;strokeColor=none;fillColor=none;spacing=5;spacingTop=-20;whiteSpace=wrap;overflow=hidden;rounded=0;" parent="1" vertex="1">
          <mxGeometry x="1146" y="2072" width="230" height="170" as="geometry" />
        </mxCell>
        <mxCell id="KYdU5iYKhg4QgW7q9NT0-78" style="edgeStyle=orthogonalEdgeStyle;rounded=0;orthogonalLoop=1;jettySize=auto;html=1;entryX=0.5;entryY=0;entryDx=0;entryDy=0;" parent="1" source="KYdU5iYKhg4QgW7q9NT0-66" target="KYdU5iYKhg4QgW7q9NT0-74" edge="1">
          <mxGeometry relative="1" as="geometry" />
        </mxCell>
        <mxCell id="KYdU5iYKhg4QgW7q9NT0-66" value="jday" style="rounded=1;whiteSpace=wrap;html=1;" parent="1" vertex="1">
          <mxGeometry x="689" y="2102" width="120" height="60" as="geometry" />
        </mxCell>
        <mxCell id="KYdU5iYKhg4QgW7q9NT0-79" style="edgeStyle=orthogonalEdgeStyle;rounded=0;orthogonalLoop=1;jettySize=auto;html=1;entryX=0.5;entryY=0;entryDx=0;entryDy=0;" parent="1" source="KYdU5iYKhg4QgW7q9NT0-67" target="KYdU5iYKhg4QgW7q9NT0-75" edge="1">
          <mxGeometry relative="1" as="geometry" />
        </mxCell>
        <mxCell id="KYdU5iYKhg4QgW7q9NT0-67" value="latlon.for" style="rounded=1;whiteSpace=wrap;html=1;" parent="1" vertex="1">
          <mxGeometry x="838" y="2102" width="120" height="60" as="geometry" />
        </mxCell>
        <mxCell id="KYdU5iYKhg4QgW7q9NT0-80" style="edgeStyle=orthogonalEdgeStyle;rounded=0;orthogonalLoop=1;jettySize=auto;html=1;" parent="1" source="KYdU5iYKhg4QgW7q9NT0-68" target="KYdU5iYKhg4QgW7q9NT0-76" edge="1">
          <mxGeometry relative="1" as="geometry" />
        </mxCell>
        <mxCell id="KYdU5iYKhg4QgW7q9NT0-68" value="medslik.for" style="rounded=1;whiteSpace=wrap;html=1;" parent="1" vertex="1">
          <mxGeometry x="993" y="2102" width="120" height="60" as="geometry" />
        </mxCell>
        <mxCell id="KYdU5iYKhg4QgW7q9NT0-82" style="edgeStyle=orthogonalEdgeStyle;rounded=0;orthogonalLoop=1;jettySize=auto;html=1;entryX=0.5;entryY=0;entryDx=0;entryDy=0;exitX=0.5;exitY=1;exitDx=0;exitDy=0;" parent="1" source="KYdU5iYKhg4QgW7q9NT0-73" target="KYdU5iYKhg4QgW7q9NT0-81" edge="1">
          <mxGeometry relative="1" as="geometry" />
        </mxCell>
        <mxCell id="KYdU5iYKhg4QgW7q9NT0-73" value="Extract_II.exe" style="rounded=1;whiteSpace=wrap;html=1;" parent="1" vertex="1">
          <mxGeometry x="539" y="2212" width="120" height="60" as="geometry" />
        </mxCell>
        <mxCell id="KYdU5iYKhg4QgW7q9NT0-83" style="edgeStyle=orthogonalEdgeStyle;rounded=0;orthogonalLoop=1;jettySize=auto;html=1;exitX=0.5;exitY=1;exitDx=0;exitDy=0;entryX=0.5;entryY=0;entryDx=0;entryDy=0;" parent="1" source="KYdU5iYKhg4QgW7q9NT0-74" target="KYdU5iYKhg4QgW7q9NT0-81" edge="1">
          <mxGeometry relative="1" as="geometry">
            <mxPoint x="822" y="2342" as="targetPoint" />
          </mxGeometry>
        </mxCell>
        <mxCell id="KYdU5iYKhg4QgW7q9NT0-74" value="jday.f" style="rounded=1;whiteSpace=wrap;html=1;" parent="1" vertex="1">
          <mxGeometry x="689" y="2212" width="120" height="60" as="geometry" />
        </mxCell>
        <mxCell id="KYdU5iYKhg4QgW7q9NT0-84" style="edgeStyle=orthogonalEdgeStyle;rounded=0;orthogonalLoop=1;jettySize=auto;html=1;entryX=0.5;entryY=0;entryDx=0;entryDy=0;" parent="1" source="KYdU5iYKhg4QgW7q9NT0-75" target="KYdU5iYKhg4QgW7q9NT0-81" edge="1">
          <mxGeometry relative="1" as="geometry" />
        </mxCell>
        <mxCell id="KYdU5iYKhg4QgW7q9NT0-75" value="latlon.exe" style="rounded=1;whiteSpace=wrap;html=1;" parent="1" vertex="1">
          <mxGeometry x="838" y="2212" width="120" height="60" as="geometry" />
        </mxCell>
        <mxCell id="KYdU5iYKhg4QgW7q9NT0-85" style="edgeStyle=orthogonalEdgeStyle;rounded=0;orthogonalLoop=1;jettySize=auto;html=1;exitX=0.5;exitY=1;exitDx=0;exitDy=0;entryX=0.5;entryY=0;entryDx=0;entryDy=0;" parent="1" source="KYdU5iYKhg4QgW7q9NT0-76" target="KYdU5iYKhg4QgW7q9NT0-81" edge="1">
          <mxGeometry relative="1" as="geometry">
            <mxPoint x="832" y="2342" as="targetPoint" />
          </mxGeometry>
        </mxCell>
        <mxCell id="KYdU5iYKhg4QgW7q9NT0-76" value="medslik.exe" style="rounded=1;whiteSpace=wrap;html=1;" parent="1" vertex="1">
          <mxGeometry x="993" y="2212" width="120" height="60" as="geometry" />
        </mxCell>
        <mxCell id="dbq1p6qKIH94W6vMfUMa-9" style="edgeStyle=orthogonalEdgeStyle;rounded=0;orthogonalLoop=1;jettySize=auto;html=1;entryX=0.5;entryY=0;entryDx=0;entryDy=0;" edge="1" parent="1" source="KYdU5iYKhg4QgW7q9NT0-81" target="dbq1p6qKIH94W6vMfUMa-4">
          <mxGeometry relative="1" as="geometry" />
        </mxCell>
        <mxCell id="KYdU5iYKhg4QgW7q9NT0-81" value="Run.sh" style="rounded=1;whiteSpace=wrap;html=1;" parent="1" vertex="1">
          <mxGeometry x="767" y="2342" width="120" height="60" as="geometry" />
        </mxCell>
        <mxCell id="KYdU5iYKhg4QgW7q9NT0-86" value="&lt;h1&gt;&lt;span style=&quot;font-size: 20px;&quot;&gt;Final Pre Processing and Running&lt;/span&gt;&lt;/h1&gt;&lt;h1 style=&quot;line-height: 50%;&quot;&gt;&lt;span style=&quot;font-size: 12px; font-weight: 400;&quot;&gt;Run.sh collects all files generated previously and organize them into medslik current, wind files and run the simulation&lt;/span&gt;&lt;/h1&gt;" style="text;html=1;strokeColor=none;fillColor=none;spacing=5;spacingTop=-20;whiteSpace=wrap;overflow=hidden;rounded=0;" parent="1" vertex="1">
          <mxGeometry x="490" y="2342" width="230" height="200" as="geometry" />
        </mxCell>
        <mxCell id="dbq1p6qKIH94W6vMfUMa-2" style="edgeStyle=orthogonalEdgeStyle;rounded=0;orthogonalLoop=1;jettySize=auto;html=1;entryX=0.5;entryY=0;entryDx=0;entryDy=0;" edge="1" parent="1" source="dbq1p6qKIH94W6vMfUMa-1" target="vE4YfjciCCc4MwVa9jjc-9">
          <mxGeometry relative="1" as="geometry" />
        </mxCell>
        <mxCell id="dbq1p6qKIH94W6vMfUMa-1" value="Model Parameters" style="ellipse;shape=cloud;whiteSpace=wrap;html=1;" vertex="1" parent="1">
          <mxGeometry x="320" y="555" width="230" height="125" as="geometry" />
        </mxCell>
        <mxCell id="dbq1p6qKIH94W6vMfUMa-3" value="&lt;h1&gt;&lt;span style=&quot;font-size: 20px;&quot;&gt;Parameters&lt;/span&gt;&lt;/h1&gt;&lt;div&gt;Parameters currently are present in config2 but only possible to modufy by editing congif2.txt&lt;/div&gt;" style="text;html=1;strokeColor=none;fillColor=none;spacing=5;spacingTop=-20;whiteSpace=wrap;overflow=hidden;rounded=0;" vertex="1" parent="1">
          <mxGeometry x="210" y="460" width="190" height="280" as="geometry" />
        </mxCell>
        <mxCell id="dbq1p6qKIH94W6vMfUMa-10" style="edgeStyle=orthogonalEdgeStyle;rounded=0;orthogonalLoop=1;jettySize=auto;html=1;entryX=0.5;entryY=0;entryDx=0;entryDy=0;" edge="1" parent="1" source="dbq1p6qKIH94W6vMfUMa-4" target="dbq1p6qKIH94W6vMfUMa-5">
          <mxGeometry relative="1" as="geometry" />
        </mxCell>
        <mxCell id="dbq1p6qKIH94W6vMfUMa-4" value="Check satellite and files" style="rounded=1;whiteSpace=wrap;html=1;" vertex="1" parent="1">
          <mxGeometry x="766" y="2440" width="120" height="60" as="geometry" />
        </mxCell>
        <mxCell id="dbq1p6qKIH94W6vMfUMa-5" value="run Extract_II.exe" style="rounded=1;whiteSpace=wrap;html=1;" vertex="1" parent="1">
          <mxGeometry x="766" y="2540" width="120" height="60" as="geometry" />
        </mxCell>
        <mxCell id="dbq1p6qKIH94W6vMfUMa-14" style="edgeStyle=orthogonalEdgeStyle;rounded=0;orthogonalLoop=1;jettySize=auto;html=1;entryX=0.5;entryY=0;entryDx=0;entryDy=0;exitX=0.5;exitY=1;exitDx=0;exitDy=0;exitPerimeter=0;" edge="1" parent="1" source="dbq1p6qKIH94W6vMfUMa-7" target="dbq1p6qKIH94W6vMfUMa-16">
          <mxGeometry relative="1" as="geometry">
            <mxPoint x="895" y="2799.9999999999995" as="targetPoint" />
          </mxGeometry>
        </mxCell>
        <mxCell id="dbq1p6qKIH94W6vMfUMa-7" value="Sea&lt;br&gt;.mrc" style="shape=cylinder3;whiteSpace=wrap;html=1;boundedLbl=1;backgroundOutline=1;size=15;" vertex="1" parent="1">
          <mxGeometry x="696" y="2650" width="70" height="80" as="geometry" />
        </mxCell>
        <mxCell id="dbq1p6qKIH94W6vMfUMa-17" style="edgeStyle=orthogonalEdgeStyle;rounded=0;orthogonalLoop=1;jettySize=auto;html=1;entryX=0.5;entryY=0;entryDx=0;entryDy=0;" edge="1" parent="1" source="dbq1p6qKIH94W6vMfUMa-8" target="dbq1p6qKIH94W6vMfUMa-16">
          <mxGeometry relative="1" as="geometry" />
        </mxCell>
        <mxCell id="dbq1p6qKIH94W6vMfUMa-8" value="Winds&lt;br&gt;.eri" style="shape=cylinder3;whiteSpace=wrap;html=1;boundedLbl=1;backgroundOutline=1;size=15;" vertex="1" parent="1">
          <mxGeometry x="879" y="2650" width="70" height="80" as="geometry" />
        </mxCell>
        <mxCell id="dbq1p6qKIH94W6vMfUMa-11" style="edgeStyle=orthogonalEdgeStyle;rounded=0;orthogonalLoop=1;jettySize=auto;html=1;entryX=0.5;entryY=0;entryDx=0;entryDy=0;entryPerimeter=0;" edge="1" parent="1" source="dbq1p6qKIH94W6vMfUMa-5" target="dbq1p6qKIH94W6vMfUMa-7">
          <mxGeometry relative="1" as="geometry" />
        </mxCell>
        <mxCell id="dbq1p6qKIH94W6vMfUMa-12" style="edgeStyle=orthogonalEdgeStyle;rounded=0;orthogonalLoop=1;jettySize=auto;html=1;entryX=0.5;entryY=0;entryDx=0;entryDy=0;entryPerimeter=0;" edge="1" parent="1" source="dbq1p6qKIH94W6vMfUMa-5" target="dbq1p6qKIH94W6vMfUMa-8">
          <mxGeometry relative="1" as="geometry" />
        </mxCell>
        <mxCell id="dbq1p6qKIH94W6vMfUMa-16" value="&lt;font style=&quot;font-size: 48px;&quot;&gt;&lt;b&gt;MEDSLIK-II&lt;/b&gt;&lt;/font&gt;" style="rounded=1;whiteSpace=wrap;html=1;fillColor=#d5e8d4;strokeColor=#82b366;" vertex="1" parent="1">
          <mxGeometry x="-670" y="2840" width="5070" height="100" as="geometry" />
        </mxCell>
        <mxCell id="dbq1p6qKIH94W6vMfUMa-110" style="edgeStyle=orthogonalEdgeStyle;rounded=0;orthogonalLoop=1;jettySize=auto;html=1;entryX=0;entryY=0.5;entryDx=0;entryDy=0;" edge="1" parent="1" source="dbq1p6qKIH94W6vMfUMa-19" target="dbq1p6qKIH94W6vMfUMa-94">
          <mxGeometry relative="1" as="geometry" />
        </mxCell>
        <mxCell id="dbq1p6qKIH94W6vMfUMa-19" value="&lt;font style=&quot;font-size: 20px;&quot;&gt;&lt;b&gt;START&lt;/b&gt;&lt;/font&gt;" style="ellipse;whiteSpace=wrap;html=1;fillColor=#ffe6cc;strokeColor=#d79b00;" vertex="1" parent="1">
          <mxGeometry x="-660" y="3130" width="120" height="80" as="geometry" />
        </mxCell>
        <mxCell id="dbq1p6qKIH94W6vMfUMa-20" value="Declare output netcfs&lt;br&gt;(spill_properties_nc)" style="rounded=0;whiteSpace=wrap;html=1;" vertex="1" parent="1">
          <mxGeometry x="-426" y="3230" width="120" height="60" as="geometry" />
        </mxCell>
        <mxCell id="dbq1p6qKIH94W6vMfUMa-21" value="Open Modeel Parameters&lt;br&gt;(config2.txt)" style="rounded=0;whiteSpace=wrap;html=1;" vertex="1" parent="1">
          <mxGeometry x="-276" y="3230" width="120" height="60" as="geometry" />
        </mxCell>
        <mxCell id="dbq1p6qKIH94W6vMfUMa-112" style="edgeStyle=orthogonalEdgeStyle;rounded=0;orthogonalLoop=1;jettySize=auto;html=1;" edge="1" parent="1" source="dbq1p6qKIH94W6vMfUMa-22" target="dbq1p6qKIH94W6vMfUMa-109">
          <mxGeometry relative="1" as="geometry" />
        </mxCell>
        <mxCell id="dbq1p6qKIH94W6vMfUMa-22" value="&lt;font style=&quot;font-size: 20px;&quot;&gt;&lt;b&gt;Model declarations, checks and prepare for computation loop&lt;/b&gt;&lt;/font&gt;" style="rounded=0;whiteSpace=wrap;html=1;fillColor=#dae8fc;strokeColor=#6c8ebf;" vertex="1" parent="1">
          <mxGeometry x="-80" y="3140" width="2120" height="60" as="geometry" />
        </mxCell>
        <mxCell id="dbq1p6qKIH94W6vMfUMa-30" value="&amp;nbsp;model parameter options" style="rounded=0;whiteSpace=wrap;html=1;" vertex="1" parent="1">
          <mxGeometry x="80" y="3230" width="120" height="60" as="geometry" />
        </mxCell>
        <mxCell id="dbq1p6qKIH94W6vMfUMa-49" value="Inputs from satellite initial conditions" style="rounded=0;whiteSpace=wrap;html=1;" vertex="1" parent="1">
          <mxGeometry x="884" y="3376" width="120" height="60" as="geometry" />
        </mxCell>
        <mxCell id="dbq1p6qKIH94W6vMfUMa-51" value="Number of minispill and parcels" style="rounded=0;whiteSpace=wrap;html=1;" vertex="1" parent="1">
          <mxGeometry x="1180" y="3230" width="120" height="60" as="geometry" />
        </mxCell>
        <mxCell id="dbq1p6qKIH94W6vMfUMa-52" value="Defining oil density" style="rounded=0;whiteSpace=wrap;html=1;" vertex="1" parent="1">
          <mxGeometry x="1320" y="3230" width="120" height="60" as="geometry" />
        </mxCell>
        <mxCell id="dbq1p6qKIH94W6vMfUMa-57" value="Define thick and thin slick initial states" style="rounded=0;whiteSpace=wrap;html=1;" vertex="1" parent="1">
          <mxGeometry x="1457" y="3231" width="120" height="60" as="geometry" />
        </mxCell>
        <mxCell id="dbq1p6qKIH94W6vMfUMa-58" value="Initial assignment of minispill properties" style="rounded=0;whiteSpace=wrap;html=1;" vertex="1" parent="1">
          <mxGeometry x="1597" y="3231" width="120" height="60" as="geometry" />
        </mxCell>
        <mxCell id="dbq1p6qKIH94W6vMfUMa-60" value="Initial assignment of parcel status" style="rounded=0;whiteSpace=wrap;html=1;" vertex="1" parent="1">
          <mxGeometry x="1743" y="3230" width="120" height="60" as="geometry" />
        </mxCell>
        <mxCell id="dbq1p6qKIH94W6vMfUMa-64" value="Adding conditions to netcdf output flie" style="rounded=0;whiteSpace=wrap;html=1;" vertex="1" parent="1">
          <mxGeometry x="1883" y="3230" width="120" height="60" as="geometry" />
        </mxCell>
        <mxCell id="dbq1p6qKIH94W6vMfUMa-66" value="Compute currents" style="rounded=0;whiteSpace=wrap;html=1;" vertex="1" parent="1">
          <mxGeometry x="3534" y="3387" width="120" height="60" as="geometry" />
        </mxCell>
        <mxCell id="dbq1p6qKIH94W6vMfUMa-67" value="Compute wind speed and direction" style="rounded=0;whiteSpace=wrap;html=1;" vertex="1" parent="1">
          <mxGeometry x="3534" y="3543" width="120" height="59" as="geometry" />
        </mxCell>
        <mxCell id="dbq1p6qKIH94W6vMfUMa-69" value="Stokes drift&lt;br&gt;(jonswap)" style="rounded=0;whiteSpace=wrap;html=1;" vertex="1" parent="1">
          <mxGeometry x="3534" y="3718" width="120" height="60" as="geometry" />
        </mxCell>
        <mxCell id="dbq1p6qKIH94W6vMfUMa-158" style="edgeStyle=orthogonalEdgeStyle;rounded=0;orthogonalLoop=1;jettySize=auto;html=1;entryX=0;entryY=0.5;entryDx=0;entryDy=0;" edge="1" parent="1" source="dbq1p6qKIH94W6vMfUMa-70" target="dbq1p6qKIH94W6vMfUMa-157">
          <mxGeometry relative="1" as="geometry" />
        </mxCell>
        <mxCell id="dbq1p6qKIH94W6vMfUMa-70" value="Sea surface temperature" style="rounded=0;whiteSpace=wrap;html=1;" vertex="1" parent="1">
          <mxGeometry x="3534" y="3798" width="120" height="60" as="geometry" />
        </mxCell>
        <mxCell id="dbq1p6qKIH94W6vMfUMa-71" value="Read Coastal segments" style="rounded=0;whiteSpace=wrap;html=1;" vertex="1" parent="1">
          <mxGeometry x="3534" y="3888" width="120" height="60" as="geometry" />
        </mxCell>
        <mxCell id="dbq1p6qKIH94W6vMfUMa-72" value="Release new minispill" style="rounded=0;whiteSpace=wrap;html=1;" vertex="1" parent="1">
          <mxGeometry x="3534" y="3968" width="120" height="60" as="geometry" />
        </mxCell>
        <mxCell id="dbq1p6qKIH94W6vMfUMa-74" value="Evaporating and dispersed particles" style="rounded=0;whiteSpace=wrap;html=1;" vertex="1" parent="1">
          <mxGeometry x="3542" y="4405" width="120" height="60" as="geometry" />
        </mxCell>
        <mxCell id="dbq1p6qKIH94W6vMfUMa-76" value="Displace and transform lagrangian parcels" style="rounded=0;whiteSpace=wrap;html=1;" vertex="1" parent="1">
          <mxGeometry x="3570" y="4815" width="120" height="59" as="geometry" />
        </mxCell>
        <mxCell id="dbq1p6qKIH94W6vMfUMa-77" value="advection displacement" style="rounded=0;whiteSpace=wrap;html=1;" vertex="1" parent="1">
          <mxGeometry x="3570" y="5105" width="120" height="60" as="geometry" />
        </mxCell>
        <mxCell id="dbq1p6qKIH94W6vMfUMa-210" style="edgeStyle=orthogonalEdgeStyle;rounded=0;orthogonalLoop=1;jettySize=auto;html=1;exitX=0.5;exitY=1;exitDx=0;exitDy=0;" edge="1" parent="1" source="dbq1p6qKIH94W6vMfUMa-78" target="dbq1p6qKIH94W6vMfUMa-206">
          <mxGeometry relative="1" as="geometry" />
        </mxCell>
        <mxCell id="dbq1p6qKIH94W6vMfUMa-211" style="edgeStyle=orthogonalEdgeStyle;rounded=0;orthogonalLoop=1;jettySize=auto;html=1;entryX=0.5;entryY=0;entryDx=0;entryDy=0;" edge="1" parent="1" source="dbq1p6qKIH94W6vMfUMa-78" target="dbq1p6qKIH94W6vMfUMa-207">
          <mxGeometry relative="1" as="geometry" />
        </mxCell>
        <mxCell id="dbq1p6qKIH94W6vMfUMa-212" style="edgeStyle=orthogonalEdgeStyle;rounded=0;orthogonalLoop=1;jettySize=auto;html=1;entryX=0.5;entryY=0;entryDx=0;entryDy=0;exitX=0.5;exitY=1;exitDx=0;exitDy=0;" edge="1" parent="1" source="dbq1p6qKIH94W6vMfUMa-78" target="dbq1p6qKIH94W6vMfUMa-208">
          <mxGeometry relative="1" as="geometry" />
        </mxCell>
        <mxCell id="dbq1p6qKIH94W6vMfUMa-78" value="check if beached parcels are released" style="rounded=0;whiteSpace=wrap;html=1;" vertex="1" parent="1">
          <mxGeometry x="3570" y="5295" width="120" height="60" as="geometry" />
        </mxCell>
        <mxCell id="dbq1p6qKIH94W6vMfUMa-79" value="check if hits coast" style="rounded=0;whiteSpace=wrap;html=1;" vertex="1" parent="1">
          <mxGeometry x="3570" y="5885" width="120" height="60" as="geometry" />
        </mxCell>
        <mxCell id="dbq1p6qKIH94W6vMfUMa-82" value="vertical diffusion" style="rounded=0;whiteSpace=wrap;html=1;" vertex="1" parent="1">
          <mxGeometry x="3570" y="5965" width="120" height="60" as="geometry" />
        </mxCell>
        <mxCell id="dbq1p6qKIH94W6vMfUMa-83" value="Count heavy and light fractions left in mini spill" style="rounded=0;whiteSpace=wrap;html=1;" vertex="1" parent="1">
          <mxGeometry x="3570" y="6045" width="120" height="60" as="geometry" />
        </mxCell>
        <mxCell id="dbq1p6qKIH94W6vMfUMa-86" value="Print spill output" style="rounded=0;whiteSpace=wrap;html=1;" vertex="1" parent="1">
          <mxGeometry x="3570" y="6355" width="120" height="60" as="geometry" />
        </mxCell>
        <mxCell id="dbq1p6qKIH94W6vMfUMa-87" value="Write to netcdf" style="rounded=0;whiteSpace=wrap;html=1;" vertex="1" parent="1">
          <mxGeometry x="3570" y="6435" width="120" height="60" as="geometry" />
        </mxCell>
        <mxCell id="dbq1p6qKIH94W6vMfUMa-88" value="Write fate values" style="rounded=0;whiteSpace=wrap;html=1;" vertex="1" parent="1">
          <mxGeometry x="3570" y="6515" width="120" height="60" as="geometry" />
        </mxCell>
        <mxCell id="dbq1p6qKIH94W6vMfUMa-89" value="&lt;font style=&quot;font-size: 20px;&quot;&gt;&lt;b&gt;END&lt;br&gt;OF&lt;br&gt;SIMULATION&lt;br&gt;&lt;/b&gt;&lt;/font&gt;" style="ellipse;whiteSpace=wrap;html=1;fillColor=#fff2cc;strokeColor=#d6b656;" vertex="1" parent="1">
          <mxGeometry x="4200" y="3080" width="210" height="150" as="geometry" />
        </mxCell>
        <mxCell id="dbq1p6qKIH94W6vMfUMa-92" value="&lt;font style=&quot;font-size: 20px;&quot;&gt;&lt;b&gt;Start Calculation Loop&lt;/b&gt;&lt;/font&gt;" style="shape=hexagon;perimeter=hexagonPerimeter2;whiteSpace=wrap;html=1;fixedSize=1;fillColor=#f8cecc;strokeColor=#b85450;" vertex="1" parent="1">
          <mxGeometry x="3508" y="3287" width="177" height="80" as="geometry" />
        </mxCell>
        <mxCell id="dbq1p6qKIH94W6vMfUMa-93" value="&lt;font style=&quot;font-size: 20px;&quot;&gt;&lt;b&gt;Start mini spill loop&lt;/b&gt;&lt;/font&gt;" style="shape=hexagon;perimeter=hexagonPerimeter2;whiteSpace=wrap;html=1;fixedSize=1;fillColor=#f8cecc;strokeColor=#b85450;" vertex="1" parent="1">
          <mxGeometry x="3534" y="4094.2" width="167" height="80" as="geometry" />
        </mxCell>
        <mxCell id="dbq1p6qKIH94W6vMfUMa-111" style="edgeStyle=orthogonalEdgeStyle;rounded=0;orthogonalLoop=1;jettySize=auto;html=1;entryX=0;entryY=0.5;entryDx=0;entryDy=0;" edge="1" parent="1" source="dbq1p6qKIH94W6vMfUMa-94" target="dbq1p6qKIH94W6vMfUMa-22">
          <mxGeometry relative="1" as="geometry" />
        </mxCell>
        <mxCell id="dbq1p6qKIH94W6vMfUMa-94" value="&lt;font style=&quot;font-size: 20px;&quot;&gt;&lt;b&gt;Initial declarations&lt;/b&gt;&lt;/font&gt;" style="rounded=0;whiteSpace=wrap;html=1;fillColor=#dae8fc;strokeColor=#6c8ebf;" vertex="1" parent="1">
          <mxGeometry x="-430" y="3140" width="280" height="60" as="geometry" />
        </mxCell>
        <mxCell id="dbq1p6qKIH94W6vMfUMa-95" value="Declaring Model dimensions" style="rounded=0;whiteSpace=wrap;html=1;" vertex="1" parent="1">
          <mxGeometry x="-80" y="3230" width="120" height="60" as="geometry" />
        </mxCell>
        <mxCell id="dbq1p6qKIH94W6vMfUMa-100" value="Check environmental fiels" style="rounded=0;whiteSpace=wrap;html=1;" vertex="1" parent="1">
          <mxGeometry x="250" y="3230" width="120" height="60" as="geometry" />
        </mxCell>
        <mxCell id="dbq1p6qKIH94W6vMfUMa-105" value="" style="group;fillColor=default;fontColor=#333333;strokeColor=#666666;container=0;" vertex="1" connectable="0" parent="1">
          <mxGeometry x="-361" y="3391" width="290" height="280" as="geometry" />
        </mxCell>
        <mxCell id="dbq1p6qKIH94W6vMfUMa-113" style="edgeStyle=orthogonalEdgeStyle;rounded=0;orthogonalLoop=1;jettySize=auto;html=1;entryX=0;entryY=0.5;entryDx=0;entryDy=0;" edge="1" parent="1" source="dbq1p6qKIH94W6vMfUMa-109" target="dbq1p6qKIH94W6vMfUMa-89">
          <mxGeometry relative="1" as="geometry" />
        </mxCell>
        <mxCell id="dbq1p6qKIH94W6vMfUMa-109" value="&lt;font style=&quot;font-size: 20px;&quot;&gt;&lt;b&gt;Model Loop&amp;nbsp;&lt;/b&gt;&lt;/font&gt;" style="rounded=0;whiteSpace=wrap;html=1;fillColor=#dae8fc;strokeColor=#6c8ebf;" vertex="1" parent="1">
          <mxGeometry x="2590" y="3125" width="1520" height="60" as="geometry" />
        </mxCell>
        <mxCell id="dbq1p6qKIH94W6vMfUMa-114" value="&lt;font style=&quot;font-size: 20px;&quot;&gt;&lt;b&gt;END&lt;br&gt;MINI SPILL&lt;br&gt;INSTANCE&lt;br&gt;&lt;/b&gt;&lt;/font&gt;" style="ellipse;whiteSpace=wrap;html=1;fillColor=#fff2cc;strokeColor=#d6b656;" vertex="1" parent="1">
          <mxGeometry x="2618" y="5435" width="182" height="110" as="geometry" />
        </mxCell>
        <mxCell id="dbq1p6qKIH94W6vMfUMa-115" value="&lt;font style=&quot;font-size: 20px;&quot;&gt;&lt;b&gt;END&lt;br&gt;TIME STEP CALCULATIONS&lt;br&gt;&lt;br&gt;&lt;/b&gt;&lt;/font&gt;" style="ellipse;whiteSpace=wrap;html=1;fillColor=#fff2cc;strokeColor=#d6b656;" vertex="1" parent="1">
          <mxGeometry x="2450" y="5575" width="190" height="120" as="geometry" />
        </mxCell>
        <mxCell id="dbq1p6qKIH94W6vMfUMa-122" value="&lt;span style=&quot;font-size: 20px;&quot;&gt;&lt;b&gt;Next Minispill&amp;nbsp;&lt;br&gt;calculations&lt;br&gt;&lt;/b&gt;&lt;/span&gt;" style="text;html=1;strokeColor=none;fillColor=none;align=center;verticalAlign=middle;whiteSpace=wrap;rounded=0;" vertex="1" parent="1">
          <mxGeometry x="2840" y="5445" width="170" height="109" as="geometry" />
        </mxCell>
        <mxCell id="dbq1p6qKIH94W6vMfUMa-123" value="&lt;span style=&quot;font-size: 20px;&quot;&gt;&lt;b&gt;Next time step calculation&lt;br&gt;&lt;/b&gt;&lt;/span&gt;" style="text;html=1;strokeColor=none;fillColor=none;align=center;verticalAlign=middle;whiteSpace=wrap;rounded=0;" vertex="1" parent="1">
          <mxGeometry x="2728" y="5609.5" width="170" height="109" as="geometry" />
        </mxCell>
        <mxCell id="dbq1p6qKIH94W6vMfUMa-125" value="Grid Checking" style="rounded=0;whiteSpace=wrap;html=1;" vertex="1" parent="1">
          <mxGeometry x="468.5" y="3229" width="120" height="60" as="geometry" />
        </mxCell>
        <mxCell id="dbq1p6qKIH94W6vMfUMa-127" style="edgeStyle=orthogonalEdgeStyle;rounded=0;orthogonalLoop=1;jettySize=auto;html=1;entryX=0.5;entryY=1;entryDx=0;entryDy=0;" edge="1" parent="1" source="dbq1p6qKIH94W6vMfUMa-124" target="dbq1p6qKIH94W6vMfUMa-125">
          <mxGeometry relative="1" as="geometry" />
        </mxCell>
        <mxCell id="dbq1p6qKIH94W6vMfUMa-129" value="&lt;font style=&quot;font-size: 20px;&quot;&gt;&lt;b&gt;Subroutines and Functions&lt;/b&gt;&lt;/font&gt;" style="rounded=0;whiteSpace=wrap;html=1;fillColor=#f0a30a;strokeColor=#BD7000;fontColor=#000000;" vertex="1" parent="1">
          <mxGeometry x="2312" y="3287" width="1092" height="74" as="geometry" />
        </mxCell>
        <mxCell id="dbq1p6qKIH94W6vMfUMa-149" style="edgeStyle=orthogonalEdgeStyle;rounded=0;orthogonalLoop=1;jettySize=auto;html=1;entryX=0;entryY=0.5;entryDx=0;entryDy=0;" edge="1" parent="1" source="dbq1p6qKIH94W6vMfUMa-132" target="dbq1p6qKIH94W6vMfUMa-66">
          <mxGeometry relative="1" as="geometry" />
        </mxCell>
        <mxCell id="dbq1p6qKIH94W6vMfUMa-154" style="edgeStyle=orthogonalEdgeStyle;rounded=0;orthogonalLoop=1;jettySize=auto;html=1;entryX=0;entryY=0.5;entryDx=0;entryDy=0;" edge="1" parent="1" source="dbq1p6qKIH94W6vMfUMa-132" target="dbq1p6qKIH94W6vMfUMa-70">
          <mxGeometry relative="1" as="geometry" />
        </mxCell>
        <mxCell id="dbq1p6qKIH94W6vMfUMa-159" style="edgeStyle=orthogonalEdgeStyle;rounded=0;orthogonalLoop=1;jettySize=auto;html=1;entryX=0.5;entryY=0;entryDx=0;entryDy=0;" edge="1" parent="1" source="dbq1p6qKIH94W6vMfUMa-132" target="dbq1p6qKIH94W6vMfUMa-139">
          <mxGeometry relative="1" as="geometry">
            <Array as="points">
              <mxPoint x="3165" y="3475" />
              <mxPoint x="2859" y="3475" />
            </Array>
          </mxGeometry>
        </mxCell>
        <mxCell id="dbq1p6qKIH94W6vMfUMa-132" value="&lt;h1&gt;&lt;span style=&quot;font-size: 20px;&quot;&gt;fctscur_1hr&lt;/span&gt;&lt;/h1&gt;&lt;div&gt;&lt;div&gt;constructs current field in case of HOURLY forecast data.&amp;nbsp;&lt;span style=&quot;background-color: initial;&quot;&gt;time = current time in hours after 0 hrs on date of spill&lt;/span&gt;&lt;/div&gt;&lt;/div&gt;" style="text;html=1;strokeColor=#432D57;fillColor=#76608a;spacing=5;spacingTop=-20;whiteSpace=wrap;overflow=hidden;rounded=0;fontColor=#ffffff;" vertex="1" parent="1">
          <mxGeometry x="3040" y="3495" width="250" height="80" as="geometry" />
        </mxCell>
        <mxCell id="dbq1p6qKIH94W6vMfUMa-160" style="edgeStyle=orthogonalEdgeStyle;rounded=0;orthogonalLoop=1;jettySize=auto;html=1;entryX=0;entryY=0.5;entryDx=0;entryDy=0;" edge="1" parent="1" source="dbq1p6qKIH94W6vMfUMa-137" target="dbq1p6qKIH94W6vMfUMa-139">
          <mxGeometry relative="1" as="geometry" />
        </mxCell>
        <mxCell id="dbq1p6qKIH94W6vMfUMa-137" value="&lt;h1&gt;&lt;span style=&quot;font-size: 20px;&quot;&gt;interpol&lt;/span&gt;&lt;/h1&gt;&lt;div&gt;interpolate an array to the medslik grid - dble precision&lt;br&gt;&lt;/div&gt;" style="text;html=1;strokeColor=#B20000;fillColor=#e51400;spacing=5;spacingTop=-20;whiteSpace=wrap;overflow=hidden;rounded=0;fontColor=#ffffff;" vertex="1" parent="1">
          <mxGeometry x="2220" y="3936" width="248" height="80" as="geometry" />
        </mxCell>
        <mxCell id="dbq1p6qKIH94W6vMfUMa-148" style="edgeStyle=orthogonalEdgeStyle;rounded=0;orthogonalLoop=1;jettySize=auto;html=1;entryX=0;entryY=0.5;entryDx=0;entryDy=0;" edge="1" parent="1" source="dbq1p6qKIH94W6vMfUMa-139" target="dbq1p6qKIH94W6vMfUMa-132">
          <mxGeometry relative="1" as="geometry" />
        </mxCell>
        <mxCell id="dbq1p6qKIH94W6vMfUMa-139" value="&lt;h1&gt;&lt;div style=&quot;border-color: var(--border-color);&quot;&gt;&lt;span style=&quot;font-size: 20px; background-color: initial;&quot;&gt;readfctscur_1hr&lt;/span&gt;&lt;br&gt;&lt;/div&gt;&lt;/h1&gt;&lt;div&gt;read forecast hourly current data and interpolate to Medslik grid&lt;br&gt;&lt;/div&gt;" style="text;html=1;strokeColor=#432D57;fillColor=#76608a;spacing=5;spacingTop=-20;whiteSpace=wrap;overflow=hidden;rounded=0;fontColor=#ffffff;" vertex="1" parent="1">
          <mxGeometry x="2734" y="3495" width="250" height="81" as="geometry" />
        </mxCell>
        <mxCell id="dbq1p6qKIH94W6vMfUMa-140" value="&lt;font size=&quot;1&quot; style=&quot;&quot;&gt;&lt;b style=&quot;font-size: 22px;&quot;&gt;Currents&lt;/b&gt;&lt;/font&gt;" style="rounded=0;whiteSpace=wrap;html=1;fillColor=#76608a;strokeColor=#432D57;fontColor=#ffffff;" vertex="1" parent="1">
          <mxGeometry x="2734" y="3376" width="520" height="76" as="geometry" />
        </mxCell>
        <mxCell id="dbq1p6qKIH94W6vMfUMa-141" value="&lt;font size=&quot;1&quot; style=&quot;&quot;&gt;&lt;b style=&quot;font-size: 22px;&quot;&gt;Utility&lt;/b&gt;&lt;/font&gt;" style="rounded=0;whiteSpace=wrap;html=1;fillColor=#e51400;strokeColor=#B20000;fontColor=#ffffff;" vertex="1" parent="1">
          <mxGeometry x="1920" y="3845" width="550" height="74" as="geometry" />
        </mxCell>
        <mxCell id="dbq1p6qKIH94W6vMfUMa-151" style="edgeStyle=orthogonalEdgeStyle;rounded=0;orthogonalLoop=1;jettySize=auto;html=1;entryX=0;entryY=0.5;entryDx=0;entryDy=0;exitX=1;exitY=0.5;exitDx=0;exitDy=0;" edge="1" parent="1" source="dbq1p6qKIH94W6vMfUMa-142" target="dbq1p6qKIH94W6vMfUMa-67">
          <mxGeometry relative="1" as="geometry">
            <Array as="points">
              <mxPoint x="3450" y="3791" />
              <mxPoint x="3450" y="3573" />
            </Array>
          </mxGeometry>
        </mxCell>
        <mxCell id="dbq1p6qKIH94W6vMfUMa-161" style="edgeStyle=orthogonalEdgeStyle;rounded=0;orthogonalLoop=1;jettySize=auto;html=1;entryX=0.5;entryY=0;entryDx=0;entryDy=0;exitX=0.5;exitY=0;exitDx=0;exitDy=0;" edge="1" parent="1" source="dbq1p6qKIH94W6vMfUMa-142" target="dbq1p6qKIH94W6vMfUMa-143">
          <mxGeometry relative="1" as="geometry" />
        </mxCell>
        <mxCell id="dbq1p6qKIH94W6vMfUMa-142" value="&lt;h1&gt;ski_ecmwf_wind&lt;br&gt;&lt;/h1&gt;&lt;div&gt;&lt;div&gt;constructs wind velocity field in case of forecast wind&lt;/div&gt;&lt;div&gt;c&amp;nbsp; &amp;nbsp; &amp;nbsp;(winx,winy) = forecast wind velocity at grid point (m,n)&lt;/div&gt;&lt;div&gt;c&amp;nbsp; &amp;nbsp; &amp;nbsp;(dwinx,dwiny) = increment per time step&lt;/div&gt;&lt;/div&gt;" style="text;html=1;strokeColor=#2D7600;fillColor=#60a917;spacing=5;spacingTop=-20;whiteSpace=wrap;overflow=hidden;rounded=0;fontColor=#ffffff;" vertex="1" parent="1">
          <mxGeometry x="3018.5" y="3725" width="250" height="131" as="geometry" />
        </mxCell>
        <mxCell id="dbq1p6qKIH94W6vMfUMa-150" style="edgeStyle=orthogonalEdgeStyle;rounded=0;orthogonalLoop=1;jettySize=auto;html=1;entryX=0;entryY=0.5;entryDx=0;entryDy=0;" edge="1" parent="1" source="dbq1p6qKIH94W6vMfUMa-143" target="dbq1p6qKIH94W6vMfUMa-142">
          <mxGeometry relative="1" as="geometry" />
        </mxCell>
        <mxCell id="dbq1p6qKIH94W6vMfUMa-143" value="&lt;h1&gt;&lt;div style=&quot;border-color: var(--border-color);&quot;&gt;&lt;span style=&quot;font-size: 20px; background-color: initial;&quot;&gt;readwind&lt;/span&gt;&lt;br&gt;&lt;/div&gt;&lt;/h1&gt;&lt;div&gt;&lt;div&gt;read wind forecast data and interpolate to Medslik grid&lt;/div&gt;&lt;div&gt;c&amp;nbsp; &amp;nbsp; &amp;nbsp;optional interpolation also over land points&lt;/div&gt;&lt;/div&gt;" style="text;html=1;strokeColor=#2D7600;fillColor=#60a917;spacing=5;spacingTop=-20;whiteSpace=wrap;overflow=hidden;rounded=0;fontColor=#ffffff;" vertex="1" parent="1">
          <mxGeometry x="2728" y="3735" width="250" height="110" as="geometry" />
        </mxCell>
        <mxCell id="dbq1p6qKIH94W6vMfUMa-144" value="&lt;font size=&quot;1&quot; style=&quot;&quot;&gt;&lt;b style=&quot;font-size: 22px;&quot;&gt;Winds&lt;/b&gt;&lt;/font&gt;" style="rounded=0;whiteSpace=wrap;html=1;fillColor=#60a917;strokeColor=#2D7600;fontColor=#ffffff;" vertex="1" parent="1">
          <mxGeometry x="2739.5" y="3590" width="509" height="74" as="geometry" />
        </mxCell>
        <mxCell id="dbq1p6qKIH94W6vMfUMa-156" style="edgeStyle=orthogonalEdgeStyle;rounded=0;orthogonalLoop=1;jettySize=auto;html=1;entryX=0;entryY=0.5;entryDx=0;entryDy=0;" edge="1" parent="1" source="dbq1p6qKIH94W6vMfUMa-145" target="dbq1p6qKIH94W6vMfUMa-155">
          <mxGeometry relative="1" as="geometry" />
        </mxCell>
        <mxCell id="dbq1p6qKIH94W6vMfUMa-145" value="Select depth to use currents" style="rounded=0;whiteSpace=wrap;html=1;" vertex="1" parent="1">
          <mxGeometry x="3534" y="3467" width="120" height="60" as="geometry" />
        </mxCell>
        <mxCell id="dbq1p6qKIH94W6vMfUMa-146" value="wind-induced drift velocity for the oil parcels" style="rounded=0;whiteSpace=wrap;html=1;" vertex="1" parent="1">
          <mxGeometry x="3534" y="3636" width="120" height="59" as="geometry" />
        </mxCell>
        <mxCell id="dbq1p6qKIH94W6vMfUMa-153" style="edgeStyle=orthogonalEdgeStyle;rounded=0;orthogonalLoop=1;jettySize=auto;html=1;entryX=0;entryY=0.5;entryDx=0;entryDy=0;" edge="1" parent="1" source="dbq1p6qKIH94W6vMfUMa-152" target="dbq1p6qKIH94W6vMfUMa-69">
          <mxGeometry relative="1" as="geometry">
            <mxPoint x="3510" y="3865" as="targetPoint" />
            <Array as="points">
              <mxPoint x="2630" y="4079" />
              <mxPoint x="2630" y="3895" />
              <mxPoint x="3480" y="3895" />
              <mxPoint x="3480" y="3748" />
            </Array>
          </mxGeometry>
        </mxCell>
        <mxCell id="dbq1p6qKIH94W6vMfUMa-152" value="&lt;h1&gt;&lt;span style=&quot;font-size: 20px;&quot;&gt;calcfetch&lt;/span&gt;&lt;/h1&gt;&lt;div&gt;iFetch calculation for JONSWAP formulation&lt;br&gt;&lt;/div&gt;" style="text;html=1;strokeColor=#B20000;fillColor=#e51400;spacing=5;spacingTop=-20;whiteSpace=wrap;overflow=hidden;rounded=0;fontColor=#ffffff;" vertex="1" parent="1">
          <mxGeometry x="2222" y="4039" width="248" height="80" as="geometry" />
        </mxCell>
        <mxCell id="dbq1p6qKIH94W6vMfUMa-155" value="&lt;h1&gt;&lt;span style=&quot;font-size: 20px;&quot;&gt;Uses only one layer&lt;/span&gt;&lt;/h1&gt;&lt;div&gt;Code allows to select one among 4 different layers&lt;/div&gt;" style="text;html=1;strokeColor=default;fillColor=none;spacing=5;spacingTop=-20;whiteSpace=wrap;overflow=hidden;rounded=0;" vertex="1" parent="1">
          <mxGeometry x="3748" y="3484" width="212" height="90" as="geometry" />
        </mxCell>
        <mxCell id="dbq1p6qKIH94W6vMfUMa-157" value="&lt;h1&gt;&lt;span style=&quot;font-size: 20px;&quot;&gt;Different possibilities&lt;/span&gt;&lt;/h1&gt;&lt;div&gt;medslik5.inp defines where SST is read from. Patern is to use fctscur_1hr&lt;/div&gt;" style="text;html=1;strokeColor=default;fillColor=none;spacing=5;spacingTop=-20;whiteSpace=wrap;overflow=hidden;rounded=0;" vertex="1" parent="1">
          <mxGeometry x="3720" y="3768" width="260" height="100" as="geometry" />
        </mxCell>
        <mxCell id="dbq1p6qKIH94W6vMfUMa-162" value="&lt;span style=&quot;font-size: 22px;&quot;&gt;&lt;b&gt;Oil Fate&lt;/b&gt;&lt;/span&gt;" style="rounded=0;whiteSpace=wrap;html=1;fillColor=#008a00;strokeColor=#005700;fontColor=#ffffff;" vertex="1" parent="1">
          <mxGeometry x="2745" y="3925" width="509" height="74" as="geometry" />
        </mxCell>
        <mxCell id="dbq1p6qKIH94W6vMfUMa-164" style="edgeStyle=orthogonalEdgeStyle;rounded=0;orthogonalLoop=1;jettySize=auto;html=1;entryX=0;entryY=0.5;entryDx=0;entryDy=0;" edge="1" parent="1" source="dbq1p6qKIH94W6vMfUMa-163" target="dbq1p6qKIH94W6vMfUMa-71">
          <mxGeometry relative="1" as="geometry">
            <Array as="points">
              <mxPoint x="3500" y="4077" />
              <mxPoint x="3500" y="3918" />
            </Array>
          </mxGeometry>
        </mxCell>
        <mxCell id="dbq1p6qKIH94W6vMfUMa-169" style="edgeStyle=orthogonalEdgeStyle;rounded=0;orthogonalLoop=1;jettySize=auto;html=1;exitX=0.5;exitY=0;exitDx=0;exitDy=0;entryX=0;entryY=0.5;entryDx=0;entryDy=0;" edge="1" parent="1" source="dbq1p6qKIH94W6vMfUMa-163" target="dbq1p6qKIH94W6vMfUMa-165">
          <mxGeometry relative="1" as="geometry" />
        </mxCell>
        <mxCell id="dbq1p6qKIH94W6vMfUMa-170" style="edgeStyle=orthogonalEdgeStyle;rounded=0;orthogonalLoop=1;jettySize=auto;html=1;exitX=0.5;exitY=0;exitDx=0;exitDy=0;entryX=0;entryY=0.5;entryDx=0;entryDy=0;" edge="1" parent="1" source="dbq1p6qKIH94W6vMfUMa-163" target="dbq1p6qKIH94W6vMfUMa-166">
          <mxGeometry relative="1" as="geometry" />
        </mxCell>
        <mxCell id="dbq1p6qKIH94W6vMfUMa-163" value="&lt;h1&gt;&lt;div style=&quot;border-color: var(--border-color);&quot;&gt;&lt;span style=&quot;font-size: 20px; background-color: initial;&quot;&gt;coast&lt;/span&gt;&lt;br&gt;&lt;/div&gt;&lt;/h1&gt;&lt;div&gt;&lt;div&gt;reads coastal segment data&lt;/div&gt;&lt;div&gt;c&amp;nbsp; &amp;nbsp; &amp;nbsp;selects those coastal segments that are close enough to spill&lt;/div&gt;&lt;/div&gt;" style="text;html=1;strokeColor=#005700;fillColor=#008a00;spacing=5;spacingTop=-20;whiteSpace=wrap;overflow=hidden;rounded=0;fontColor=#ffffff;" vertex="1" parent="1">
          <mxGeometry x="2998.5" y="4035" width="250" height="110" as="geometry" />
        </mxCell>
        <mxCell id="dbq1p6qKIH94W6vMfUMa-172" style="edgeStyle=orthogonalEdgeStyle;rounded=0;orthogonalLoop=1;jettySize=auto;html=1;entryX=0;entryY=0.5;entryDx=0;entryDy=0;" edge="1" parent="1" source="dbq1p6qKIH94W6vMfUMa-165" target="dbq1p6qKIH94W6vMfUMa-163">
          <mxGeometry relative="1" as="geometry" />
        </mxCell>
        <mxCell id="dbq1p6qKIH94W6vMfUMa-165" value="&lt;h1&gt;&lt;div style=&quot;border-color: var(--border-color);&quot;&gt;&lt;span style=&quot;font-size: 20px; background-color: initial;&quot;&gt;setcst&lt;/span&gt;&lt;br&gt;&lt;/div&gt;&lt;/h1&gt;&lt;div&gt;&lt;div&gt;constructs coastal segments from regional map&lt;/div&gt;&lt;/div&gt;" style="text;html=1;strokeColor=#005700;fillColor=#008a00;spacing=5;spacingTop=-20;whiteSpace=wrap;overflow=hidden;rounded=0;fontColor=#ffffff;" vertex="1" parent="1">
          <mxGeometry x="2680" y="4035" width="250" height="110" as="geometry" />
        </mxCell>
        <mxCell id="dbq1p6qKIH94W6vMfUMa-173" style="edgeStyle=orthogonalEdgeStyle;rounded=0;orthogonalLoop=1;jettySize=auto;html=1;entryX=0;entryY=0.5;entryDx=0;entryDy=0;" edge="1" parent="1" source="dbq1p6qKIH94W6vMfUMa-166" target="dbq1p6qKIH94W6vMfUMa-163">
          <mxGeometry relative="1" as="geometry" />
        </mxCell>
        <mxCell id="dbq1p6qKIH94W6vMfUMa-166" value="&lt;h1&gt;&lt;div style=&quot;border-color: var(--border-color);&quot;&gt;&lt;span style=&quot;font-size: 20px;&quot;&gt;function hlseep&lt;/span&gt;&lt;/div&gt;&lt;/h1&gt;&lt;div&gt;half-life for seepage into the beach; beach type = ib. 9 types of beach types&lt;br&gt;&lt;/div&gt;" style="text;html=1;strokeColor=#005700;fillColor=#008a00;spacing=5;spacingTop=-20;whiteSpace=wrap;overflow=hidden;rounded=0;fontColor=#ffffff;" vertex="1" parent="1">
          <mxGeometry x="2680" y="4174.2" width="250" height="110" as="geometry" />
        </mxCell>
        <mxCell id="dbq1p6qKIH94W6vMfUMa-174" style="edgeStyle=orthogonalEdgeStyle;rounded=0;orthogonalLoop=1;jettySize=auto;html=1;entryX=0;entryY=0.5;entryDx=0;entryDy=0;" edge="1" parent="1" source="dbq1p6qKIH94W6vMfUMa-167" target="dbq1p6qKIH94W6vMfUMa-163">
          <mxGeometry relative="1" as="geometry" />
        </mxCell>
        <mxCell id="dbq1p6qKIH94W6vMfUMa-167" value="&lt;h1&gt;&lt;div style=&quot;border-color: var(--border-color);&quot;&gt;&lt;span style=&quot;font-size: 20px;&quot;&gt;function hlwash&lt;/span&gt;&lt;/div&gt;&lt;/h1&gt;&lt;div&gt;half-life for washing off the beach&lt;br&gt;&lt;/div&gt;" style="text;html=1;strokeColor=#005700;fillColor=#008a00;spacing=5;spacingTop=-20;whiteSpace=wrap;overflow=hidden;rounded=0;fontColor=#ffffff;" vertex="1" parent="1">
          <mxGeometry x="2680" y="4304.2" width="250" height="110" as="geometry" />
        </mxCell>
        <mxCell id="dbq1p6qKIH94W6vMfUMa-177" style="edgeStyle=orthogonalEdgeStyle;rounded=0;orthogonalLoop=1;jettySize=auto;html=1;entryX=0;entryY=0.5;entryDx=0;entryDy=0;" edge="1" parent="1" source="dbq1p6qKIH94W6vMfUMa-168" target="dbq1p6qKIH94W6vMfUMa-74">
          <mxGeometry relative="1" as="geometry" />
        </mxCell>
        <mxCell id="dbq1p6qKIH94W6vMfUMa-168" value="&lt;h1&gt;&lt;div style=&quot;border-color: var(--border-color);&quot;&gt;&lt;span style=&quot;font-size: 20px;&quot;&gt;ed&lt;/span&gt;&lt;/div&gt;&lt;/h1&gt;&lt;div&gt;&lt;div&gt;computes evaporation probability (eprob) and&lt;/div&gt;&lt;div&gt;dispersion probability (dprob) and emulsification rate&lt;/div&gt;&lt;/div&gt;" style="text;html=1;strokeColor=#005700;fillColor=#008a00;spacing=5;spacingTop=-20;whiteSpace=wrap;overflow=hidden;rounded=0;fontColor=#ffffff;" vertex="1" parent="1">
          <mxGeometry x="2998.5" y="4205" width="250" height="110" as="geometry" />
        </mxCell>
        <mxCell id="dbq1p6qKIH94W6vMfUMa-178" value="&lt;span style=&quot;font-size: 22px;&quot;&gt;&lt;b&gt;Diffusivity&lt;/b&gt;&lt;/span&gt;" style="rounded=0;whiteSpace=wrap;html=1;fillColor=#e3c800;strokeColor=#B09500;fontColor=#000000;" vertex="1" parent="1">
          <mxGeometry x="2735" y="4465" width="509" height="74" as="geometry" />
        </mxCell>
        <mxCell id="dbq1p6qKIH94W6vMfUMa-187" style="edgeStyle=orthogonalEdgeStyle;rounded=0;orthogonalLoop=1;jettySize=auto;html=1;entryX=0;entryY=0.5;entryDx=0;entryDy=0;" edge="1" parent="1" source="dbq1p6qKIH94W6vMfUMa-180" target="dbq1p6qKIH94W6vMfUMa-186">
          <mxGeometry relative="1" as="geometry">
            <Array as="points">
              <mxPoint x="3450" y="4620" />
              <mxPoint x="3450" y="4340" />
            </Array>
          </mxGeometry>
        </mxCell>
        <mxCell id="dbq1p6qKIH94W6vMfUMa-180" value="&lt;h1&gt;&lt;div style=&quot;border-color: var(--border-color);&quot;&gt;&lt;span style=&quot;font-size: 20px;&quot;&gt;smag&lt;/span&gt;&lt;/div&gt;&lt;/h1&gt;&lt;div&gt;&lt;div&gt;compute horizontal diffusity from Smagorinsky model&lt;/div&gt;&lt;/div&gt;" style="text;html=1;strokeColor=#B09500;fillColor=#e3c800;spacing=5;spacingTop=-20;whiteSpace=wrap;overflow=hidden;rounded=0;fontColor=#000000;" vertex="1" parent="1">
          <mxGeometry x="2874.5" y="4565" width="250" height="110" as="geometry" />
        </mxCell>
        <mxCell id="dbq1p6qKIH94W6vMfUMa-200" style="edgeStyle=orthogonalEdgeStyle;rounded=0;orthogonalLoop=1;jettySize=auto;html=1;entryX=0;entryY=0;entryDx=0;entryDy=0;exitX=1;exitY=0.5;exitDx=0;exitDy=0;" edge="1" parent="1" source="dbq1p6qKIH94W6vMfUMa-181" target="dbq1p6qKIH94W6vMfUMa-195">
          <mxGeometry relative="1" as="geometry">
            <mxPoint x="3130" y="4760" as="sourcePoint" />
            <mxPoint x="3276.2" y="5024.5" as="targetPoint" />
            <Array as="points">
              <mxPoint x="3416" y="4760" />
              <mxPoint x="3416" y="4995" />
            </Array>
          </mxGeometry>
        </mxCell>
        <mxCell id="dbq1p6qKIH94W6vMfUMa-181" value="&lt;h1&gt;&lt;div style=&quot;border-color: var(--border-color);&quot;&gt;&lt;span style=&quot;font-size: 20px;&quot;&gt;function vertd&lt;/span&gt;&lt;/div&gt;&lt;/h1&gt;&lt;div&gt;&lt;div&gt;computes the mean diffusion step at depth &#39;dep&#39;&lt;/div&gt;&lt;/div&gt;" style="text;html=1;strokeColor=#B09500;fillColor=#e3c800;spacing=5;spacingTop=-20;whiteSpace=wrap;overflow=hidden;rounded=0;fontColor=#000000;" vertex="1" parent="1">
          <mxGeometry x="2874.5" y="4705" width="250" height="110" as="geometry" />
        </mxCell>
        <mxCell id="dbq1p6qKIH94W6vMfUMa-183" value="&lt;h1&gt;&lt;span style=&quot;font-size: 20px;&quot;&gt;Calculations for each parcel&lt;/span&gt;&lt;/h1&gt;&lt;div&gt;Loops through all parcels in the oil spill simulation&lt;/div&gt;" style="text;html=1;strokeColor=none;fillColor=none;spacing=5;spacingTop=-20;whiteSpace=wrap;overflow=hidden;rounded=0;" vertex="1" parent="1">
          <mxGeometry x="3730" y="4095" width="330" height="100" as="geometry" />
        </mxCell>
        <mxCell id="dbq1p6qKIH94W6vMfUMa-184" value="&lt;h1&gt;&lt;span style=&quot;font-size: 20px;&quot;&gt;Calculations for each time step&lt;/span&gt;&lt;/h1&gt;&lt;div&gt;all physical process are computed and saved for 1 hr time step in Medslik-II&lt;/div&gt;" style="text;html=1;strokeColor=none;fillColor=none;spacing=5;spacingTop=-20;whiteSpace=wrap;overflow=hidden;rounded=0;" vertex="1" parent="1">
          <mxGeometry x="3720" y="3277" width="340" height="100" as="geometry" />
        </mxCell>
        <mxCell id="dbq1p6qKIH94W6vMfUMa-185" value="Computes centres of the spreading part and the whole minislick" style="rounded=0;whiteSpace=wrap;html=1;" vertex="1" parent="1">
          <mxGeometry x="3557.5" y="4205" width="120" height="60" as="geometry" />
        </mxCell>
        <mxCell id="dbq1p6qKIH94W6vMfUMa-186" value="computes&amp;nbsp;Smagorinsky diffusivity at centre of each mini-slick&amp;nbsp;" style="rounded=0;whiteSpace=wrap;html=1;" vertex="1" parent="1">
          <mxGeometry x="3557.5" y="4304.2" width="132.5" height="70.8" as="geometry" />
        </mxCell>
        <mxCell id="dbq1p6qKIH94W6vMfUMa-188" value="if satellite" style="rhombus;whiteSpace=wrap;html=1;" vertex="1" parent="1">
          <mxGeometry x="3553.25" y="4525" width="152.5" height="120" as="geometry" />
        </mxCell>
        <mxCell id="dbq1p6qKIH94W6vMfUMa-189" value="aged spill properties" style="rounded=0;whiteSpace=wrap;html=1;" vertex="1" parent="1">
          <mxGeometry x="3744" y="4635" width="120" height="60" as="geometry" />
        </mxCell>
        <mxCell id="dbq1p6qKIH94W6vMfUMa-193" style="edgeStyle=orthogonalEdgeStyle;rounded=0;orthogonalLoop=1;jettySize=auto;html=1;entryX=0;entryY=0.5;entryDx=0;entryDy=0;" edge="1" parent="1" source="dbq1p6qKIH94W6vMfUMa-190" target="dbq1p6qKIH94W6vMfUMa-76">
          <mxGeometry relative="1" as="geometry">
            <Array as="points">
              <mxPoint x="2610" y="4203" />
              <mxPoint x="2610" y="4845" />
              <mxPoint x="3558" y="4845" />
            </Array>
          </mxGeometry>
        </mxCell>
        <mxCell id="dbq1p6qKIH94W6vMfUMa-194" style="edgeStyle=orthogonalEdgeStyle;rounded=0;orthogonalLoop=1;jettySize=auto;html=1;entryX=0;entryY=0.5;entryDx=0;entryDy=0;" edge="1" parent="1" source="dbq1p6qKIH94W6vMfUMa-190" target="dbq1p6qKIH94W6vMfUMa-192">
          <mxGeometry relative="1" as="geometry">
            <Array as="points">
              <mxPoint x="2610" y="4203" />
              <mxPoint x="2610" y="4935" />
            </Array>
          </mxGeometry>
        </mxCell>
        <mxCell id="dbq1p6qKIH94W6vMfUMa-197" style="edgeStyle=orthogonalEdgeStyle;rounded=0;orthogonalLoop=1;jettySize=auto;html=1;entryX=0;entryY=0.5;entryDx=0;entryDy=0;" edge="1" parent="1" source="dbq1p6qKIH94W6vMfUMa-190" target="dbq1p6qKIH94W6vMfUMa-195">
          <mxGeometry relative="1" as="geometry">
            <Array as="points">
              <mxPoint x="2610" y="4203" />
              <mxPoint x="2610" y="5025" />
            </Array>
          </mxGeometry>
        </mxCell>
        <mxCell id="dbq1p6qKIH94W6vMfUMa-205" style="edgeStyle=orthogonalEdgeStyle;rounded=0;orthogonalLoop=1;jettySize=auto;html=1;entryX=0;entryY=0.5;entryDx=0;entryDy=0;" edge="1" parent="1" source="dbq1p6qKIH94W6vMfUMa-190" target="dbq1p6qKIH94W6vMfUMa-78">
          <mxGeometry relative="1" as="geometry">
            <Array as="points">
              <mxPoint x="2610" y="4203" />
              <mxPoint x="2610" y="5325" />
            </Array>
          </mxGeometry>
        </mxCell>
        <mxCell id="dbq1p6qKIH94W6vMfUMa-190" value="&lt;h1&gt;&lt;span style=&quot;font-size: 20px;&quot;&gt;randmedslik&lt;/span&gt;&lt;/h1&gt;&lt;div&gt;function rand computes random numbers between 0.0 and 1.0&lt;br&gt;&lt;/div&gt;" style="text;html=1;strokeColor=#B20000;fillColor=#e51400;spacing=5;spacingTop=-20;whiteSpace=wrap;overflow=hidden;rounded=0;fontColor=#ffffff;" vertex="1" parent="1">
          <mxGeometry x="2220" y="4150" width="248" height="105" as="geometry" />
        </mxCell>
        <mxCell id="dbq1p6qKIH94W6vMfUMa-191" value="&lt;h1&gt;&lt;span style=&quot;font-size: 20px;&quot;&gt;seedmedslik&lt;/span&gt;&lt;/h1&gt;&lt;div&gt;calculates an approximately random first seed for rand&lt;br&gt;&lt;/div&gt;" style="text;html=1;strokeColor=#B20000;fillColor=#e51400;spacing=5;spacingTop=-20;whiteSpace=wrap;overflow=hidden;rounded=0;fontColor=#ffffff;" vertex="1" parent="1">
          <mxGeometry x="1923" y="4215" width="248" height="80" as="geometry" />
        </mxCell>
        <mxCell id="dbq1p6qKIH94W6vMfUMa-192" value="Spreading displacement" style="rounded=0;whiteSpace=wrap;html=1;" vertex="1" parent="1">
          <mxGeometry x="3570" y="4905" width="120" height="59" as="geometry" />
        </mxCell>
        <mxCell id="dbq1p6qKIH94W6vMfUMa-195" value="diffusion&lt;br&gt;&amp;nbsp;displacement" style="rounded=0;whiteSpace=wrap;html=1;" vertex="1" parent="1">
          <mxGeometry x="3570" y="4995" width="120" height="59" as="geometry" />
        </mxCell>
        <mxCell id="dbq1p6qKIH94W6vMfUMa-196" value="&lt;h1&gt;&lt;span style=&quot;font-size: 20px;&quot;&gt;Calculations for each parcel&lt;/span&gt;&lt;/h1&gt;&lt;div&gt;&lt;div&gt;Thick slick contains most of the oil&amp;nbsp;&lt;span style=&quot;background-color: initial;&quot;&gt;since mechanical spreading is stopped after sprdmx = 24 hrs)&amp;nbsp;&lt;/span&gt;&lt;span style=&quot;background-color: initial;&quot;&gt;new parcels randomly &amp;amp; uniformly distributed within initial thick&amp;nbsp;&lt;/span&gt;&lt;span style=&quot;background-color: initial;&quot;&gt;slick radius rtk0. (Thin slick volume is initially v small)&lt;/span&gt;&lt;/div&gt;&lt;/div&gt;" style="text;html=1;strokeColor=none;fillColor=none;spacing=5;spacingTop=-20;whiteSpace=wrap;overflow=hidden;rounded=0;" vertex="1" parent="1">
          <mxGeometry x="3730" y="4884.5" width="400" height="100" as="geometry" />
        </mxCell>
        <mxCell id="dbq1p6qKIH94W6vMfUMa-199" style="edgeStyle=orthogonalEdgeStyle;rounded=0;orthogonalLoop=1;jettySize=auto;html=1;" edge="1" parent="1" source="dbq1p6qKIH94W6vMfUMa-198">
          <mxGeometry relative="1" as="geometry">
            <mxPoint x="3570" y="5055" as="targetPoint" />
            <Array as="points">
              <mxPoint x="2550" y="4337" />
              <mxPoint x="2550" y="5055" />
            </Array>
          </mxGeometry>
        </mxCell>
        <mxCell id="dbq1p6qKIH94W6vMfUMa-198" value="&lt;h1&gt;&lt;span style=&quot;font-size: 20px;&quot;&gt;intrpl0&lt;/span&gt;&lt;/h1&gt;&lt;div&gt;&lt;div&gt;interpolates values of an array q&amp;nbsp;&lt;span style=&quot;background-color: initial;&quot;&gt;from grid values to a point (x,y)&lt;/span&gt;&lt;/div&gt;&lt;/div&gt;" style="text;html=1;strokeColor=#B20000;fillColor=#e51400;spacing=5;spacingTop=-20;whiteSpace=wrap;overflow=hidden;rounded=0;fontColor=#ffffff;" vertex="1" parent="1">
          <mxGeometry x="2222" y="4284.2" width="248" height="105" as="geometry" />
        </mxCell>
        <mxCell id="dbq1p6qKIH94W6vMfUMa-202" style="edgeStyle=orthogonalEdgeStyle;rounded=0;orthogonalLoop=1;jettySize=auto;html=1;entryX=0;entryY=0.5;entryDx=0;entryDy=0;" edge="1" parent="1" source="dbq1p6qKIH94W6vMfUMa-201" target="dbq1p6qKIH94W6vMfUMa-77">
          <mxGeometry relative="1" as="geometry">
            <Array as="points">
              <mxPoint x="2500" y="4478" />
              <mxPoint x="2500" y="5135" />
            </Array>
          </mxGeometry>
        </mxCell>
        <mxCell id="dbq1p6qKIH94W6vMfUMa-201" value="&lt;h1&gt;&lt;span style=&quot;font-size: 20px;&quot;&gt;intrpl&lt;/span&gt;&lt;/h1&gt;&lt;div&gt;&lt;div&gt;interpolates values of an array q from grid&amp;nbsp;&lt;span style=&quot;background-color: initial;&quot;&gt;values to a point (x,y) taking account of land/water mask&lt;/span&gt;&lt;/div&gt;&lt;/div&gt;" style="text;html=1;strokeColor=#B20000;fillColor=#e51400;spacing=5;spacingTop=-20;whiteSpace=wrap;overflow=hidden;rounded=0;fontColor=#ffffff;" vertex="1" parent="1">
          <mxGeometry x="2220" y="4425" width="248" height="105" as="geometry" />
        </mxCell>
        <mxCell id="dbq1p6qKIH94W6vMfUMa-203" value="&lt;h1&gt;&lt;span style=&quot;font-size: 20px;&quot;&gt;Bilinear interpolation&lt;/span&gt;&lt;/h1&gt;&lt;div&gt;&lt;div&gt;compute advective displacements of surface &amp;amp; dispersed parcels&amp;nbsp;&lt;span style=&quot;background-color: initial;&quot;&gt;include wind drift &amp;amp; correction term from observation(s) of spill&lt;/span&gt;&lt;/div&gt;&lt;/div&gt;" style="text;html=1;strokeColor=none;fillColor=none;spacing=5;spacingTop=-20;whiteSpace=wrap;overflow=hidden;rounded=0;" vertex="1" parent="1">
          <mxGeometry x="3720" y="5085" width="400" height="100" as="geometry" />
        </mxCell>
        <mxCell id="dbq1p6qKIH94W6vMfUMa-204" value="displace parcels on surface and dispersed parcels" style="rounded=0;whiteSpace=wrap;html=1;" vertex="1" parent="1">
          <mxGeometry x="3570" y="5195" width="120" height="60" as="geometry" />
        </mxCell>
        <mxCell id="dbq1p6qKIH94W6vMfUMa-214" style="edgeStyle=orthogonalEdgeStyle;rounded=0;orthogonalLoop=1;jettySize=auto;html=1;entryX=0.5;entryY=0;entryDx=0;entryDy=0;exitX=0.5;exitY=1;exitDx=0;exitDy=0;" edge="1" parent="1" source="dbq1p6qKIH94W6vMfUMa-206" target="dbq1p6qKIH94W6vMfUMa-213">
          <mxGeometry relative="1" as="geometry" />
        </mxCell>
        <mxCell id="dbq1p6qKIH94W6vMfUMa-206" value="sfrac&lt;br&gt;fraction of beached oil seeping into sand per step at &#39;ns&#39;" style="rounded=0;whiteSpace=wrap;html=1;" vertex="1" parent="1">
          <mxGeometry x="3384" y="5405" width="142" height="70" as="geometry" />
        </mxCell>
        <mxCell id="dbq1p6qKIH94W6vMfUMa-215" style="edgeStyle=orthogonalEdgeStyle;rounded=0;orthogonalLoop=1;jettySize=auto;html=1;" edge="1" parent="1" source="dbq1p6qKIH94W6vMfUMa-207">
          <mxGeometry relative="1" as="geometry">
            <mxPoint x="3629.5" y="5545" as="targetPoint" />
          </mxGeometry>
        </mxCell>
        <mxCell id="dbq1p6qKIH94W6vMfUMa-207" value="prel&lt;br&gt;probability of beached oil being washed off at &#39;ns&#39;" style="rounded=0;whiteSpace=wrap;html=1;" vertex="1" parent="1">
          <mxGeometry x="3565" y="5405" width="129" height="70" as="geometry" />
        </mxCell>
        <mxCell id="dbq1p6qKIH94W6vMfUMa-216" style="edgeStyle=orthogonalEdgeStyle;rounded=0;orthogonalLoop=1;jettySize=auto;html=1;entryX=0.5;entryY=0;entryDx=0;entryDy=0;exitX=0.5;exitY=1;exitDx=0;exitDy=0;" edge="1" parent="1" source="dbq1p6qKIH94W6vMfUMa-208" target="dbq1p6qKIH94W6vMfUMa-213">
          <mxGeometry relative="1" as="geometry" />
        </mxCell>
        <mxCell id="dbq1p6qKIH94W6vMfUMa-208" value="seep&lt;br&gt;volume of oil at the impacted coastal segment &#39;nsg&#39;" style="rounded=0;whiteSpace=wrap;html=1;" vertex="1" parent="1">
          <mxGeometry x="3744" y="5405" width="132" height="70" as="geometry" />
        </mxCell>
        <mxCell id="dbq1p6qKIH94W6vMfUMa-219" style="edgeStyle=orthogonalEdgeStyle;rounded=0;orthogonalLoop=1;jettySize=auto;html=1;exitX=1;exitY=0.5;exitDx=0;exitDy=0;entryX=0.5;entryY=0;entryDx=0;entryDy=0;" edge="1" parent="1" source="dbq1p6qKIH94W6vMfUMa-213" target="dbq1p6qKIH94W6vMfUMa-218">
          <mxGeometry relative="1" as="geometry" />
        </mxCell>
        <mxCell id="dbq1p6qKIH94W6vMfUMa-213" value="if booms" style="rhombus;whiteSpace=wrap;html=1;" vertex="1" parent="1">
          <mxGeometry x="3553.75" y="5535" width="152.5" height="120" as="geometry" />
        </mxCell>
        <mxCell id="dbq1p6qKIH94W6vMfUMa-218" value="hits coast" style="rounded=0;whiteSpace=wrap;html=1;" vertex="1" parent="1">
          <mxGeometry x="3770" y="5655" width="120" height="60" as="geometry" />
        </mxCell>
        <mxCell id="dbq1p6qKIH94W6vMfUMa-220" value="hits coast" style="rounded=0;whiteSpace=wrap;html=1;" vertex="1" parent="1">
          <mxGeometry x="3770" y="5745" width="120" height="60" as="geometry" />
        </mxCell>
        <mxCell id="dbq1p6qKIH94W6vMfUMa-228" style="edgeStyle=orthogonalEdgeStyle;rounded=0;orthogonalLoop=1;jettySize=auto;html=1;entryX=0.5;entryY=0;entryDx=0;entryDy=0;exitX=0.5;exitY=1;exitDx=0;exitDy=0;" edge="1" parent="1" source="dbq1p6qKIH94W6vMfUMa-221" target="dbq1p6qKIH94W6vMfUMa-222">
          <mxGeometry relative="1" as="geometry" />
        </mxCell>
        <mxCell id="dbq1p6qKIH94W6vMfUMa-229" style="edgeStyle=orthogonalEdgeStyle;rounded=0;orthogonalLoop=1;jettySize=auto;html=1;entryX=0.5;entryY=0;entryDx=0;entryDy=0;exitX=0.5;exitY=1;exitDx=0;exitDy=0;" edge="1" parent="1" source="dbq1p6qKIH94W6vMfUMa-221" target="dbq1p6qKIH94W6vMfUMa-223">
          <mxGeometry relative="1" as="geometry" />
        </mxCell>
        <mxCell id="dbq1p6qKIH94W6vMfUMa-230" style="edgeStyle=orthogonalEdgeStyle;rounded=0;orthogonalLoop=1;jettySize=auto;html=1;entryX=0.5;entryY=0;entryDx=0;entryDy=0;" edge="1" parent="1" source="dbq1p6qKIH94W6vMfUMa-221" target="dbq1p6qKIH94W6vMfUMa-224">
          <mxGeometry relative="1" as="geometry" />
        </mxCell>
        <mxCell id="dbq1p6qKIH94W6vMfUMa-231" style="edgeStyle=orthogonalEdgeStyle;rounded=0;orthogonalLoop=1;jettySize=auto;html=1;entryX=0.5;entryY=0;entryDx=0;entryDy=0;" edge="1" parent="1" source="dbq1p6qKIH94W6vMfUMa-221" target="dbq1p6qKIH94W6vMfUMa-225">
          <mxGeometry relative="1" as="geometry" />
        </mxCell>
        <mxCell id="dbq1p6qKIH94W6vMfUMa-232" style="edgeStyle=orthogonalEdgeStyle;rounded=0;orthogonalLoop=1;jettySize=auto;html=1;entryX=0.5;entryY=0;entryDx=0;entryDy=0;exitX=0.5;exitY=1;exitDx=0;exitDy=0;" edge="1" parent="1" source="dbq1p6qKIH94W6vMfUMa-221" target="dbq1p6qKIH94W6vMfUMa-226">
          <mxGeometry relative="1" as="geometry" />
        </mxCell>
        <mxCell id="dbq1p6qKIH94W6vMfUMa-233" style="edgeStyle=orthogonalEdgeStyle;rounded=0;orthogonalLoop=1;jettySize=auto;html=1;entryX=0.5;entryY=0;entryDx=0;entryDy=0;exitX=0.5;exitY=1;exitDx=0;exitDy=0;" edge="1" parent="1" source="dbq1p6qKIH94W6vMfUMa-221" target="dbq1p6qKIH94W6vMfUMa-227">
          <mxGeometry relative="1" as="geometry" />
        </mxCell>
        <mxCell id="dbq1p6qKIH94W6vMfUMa-221" value="Compute totals for output" style="rounded=0;whiteSpace=wrap;html=1;" vertex="1" parent="1">
          <mxGeometry x="3570" y="6135" width="120" height="60" as="geometry" />
        </mxCell>
        <mxCell id="dbq1p6qKIH94W6vMfUMa-222" value="vol of oil stll spreading" style="rounded=0;whiteSpace=wrap;html=1;" vertex="1" parent="1">
          <mxGeometry x="3170" y="6245" width="120" height="60" as="geometry" />
        </mxCell>
        <mxCell id="dbq1p6qKIH94W6vMfUMa-223" value="vol of oil on surface but not spreading" style="rounded=0;whiteSpace=wrap;html=1;" vertex="1" parent="1">
          <mxGeometry x="3326" y="6245" width="120" height="60" as="geometry" />
        </mxCell>
        <mxCell id="dbq1p6qKIH94W6vMfUMa-224" value="vol of oil dispersed" style="rounded=0;whiteSpace=wrap;html=1;" vertex="1" parent="1">
          <mxGeometry x="3485" y="6245" width="120" height="60" as="geometry" />
        </mxCell>
        <mxCell id="dbq1p6qKIH94W6vMfUMa-225" value="vol of oil on the coast but not permanently there" style="rounded=0;whiteSpace=wrap;html=1;" vertex="1" parent="1">
          <mxGeometry x="3648" y="6245" width="120" height="60" as="geometry" />
        </mxCell>
        <mxCell id="dbq1p6qKIH94W6vMfUMa-226" value="vol of oil-water mousse" style="rounded=0;whiteSpace=wrap;html=1;" vertex="1" parent="1">
          <mxGeometry x="3810" y="6245" width="120" height="60" as="geometry" />
        </mxCell>
        <mxCell id="dbq1p6qKIH94W6vMfUMa-227" value="total vol of oil-water mousse incl releasable oil on coast" style="rounded=0;whiteSpace=wrap;html=1;" vertex="1" parent="1">
          <mxGeometry x="3980" y="6245" width="120" height="60" as="geometry" />
        </mxCell>
        <mxCell id="dbq1p6qKIH94W6vMfUMa-234" value="&lt;div&gt;count up and print barrels permanently stuck on coast&lt;/div&gt;" style="rounded=0;whiteSpace=wrap;html=1;" vertex="1" parent="1">
          <mxGeometry x="3570" y="6605" width="120" height="60" as="geometry" />
        </mxCell>
        <mxCell id="dbq1p6qKIH94W6vMfUMa-235" value="&lt;font style=&quot;font-size: 20px;&quot;&gt;&lt;b&gt;Subroutines and Functions&lt;br&gt;in the Code, but not used&lt;br&gt;&lt;/b&gt;&lt;/font&gt;" style="rounded=0;whiteSpace=wrap;html=1;fillColor=#f0a30a;strokeColor=#BD7000;fontColor=#000000;glass=0;sketch=1;curveFitting=1;jiggle=2;" vertex="1" parent="1">
          <mxGeometry x="-600" y="3920.5" width="1092" height="74" as="geometry" />
        </mxCell>
        <mxCell id="dbq1p6qKIH94W6vMfUMa-236" value="&lt;h1&gt;&lt;span style=&quot;font-size: 20px;&quot;&gt;ll2mer&lt;/span&gt;&lt;/h1&gt;&lt;div&gt;converts latitude, longitude to mer coords&lt;br&gt;&lt;/div&gt;" style="text;html=1;strokeColor=#B20000;fillColor=#e51400;spacing=5;spacingTop=-20;whiteSpace=wrap;overflow=hidden;rounded=0;fontColor=#ffffff;" vertex="1" parent="1">
          <mxGeometry x="175" y="4160.5" width="248" height="80" as="geometry" />
        </mxCell>
        <mxCell id="dbq1p6qKIH94W6vMfUMa-237" value="&lt;h1&gt;&lt;span style=&quot;font-size: 20px;&quot;&gt;ll2mer&lt;/span&gt;&lt;/h1&gt;&lt;div&gt;onverts mercator metric coords to latitude, longitude&lt;br&gt;&lt;/div&gt;" style="text;html=1;strokeColor=#B20000;fillColor=#e51400;spacing=5;spacingTop=-20;whiteSpace=wrap;overflow=hidden;rounded=0;fontColor=#ffffff;" vertex="1" parent="1">
          <mxGeometry x="175" y="4030.5" width="248" height="80" as="geometry" />
        </mxCell>
        <mxCell id="dbq1p6qKIH94W6vMfUMa-239" style="edgeStyle=orthogonalEdgeStyle;rounded=0;orthogonalLoop=1;jettySize=auto;html=1;entryX=0;entryY=0.5;entryDx=0;entryDy=0;" edge="1" parent="1" source="dbq1p6qKIH94W6vMfUMa-238" target="dbq1p6qKIH94W6vMfUMa-237">
          <mxGeometry relative="1" as="geometry" />
        </mxCell>
        <mxCell id="dbq1p6qKIH94W6vMfUMa-240" style="edgeStyle=orthogonalEdgeStyle;rounded=0;orthogonalLoop=1;jettySize=auto;html=1;entryX=0;entryY=0.5;entryDx=0;entryDy=0;" edge="1" parent="1" source="dbq1p6qKIH94W6vMfUMa-238" target="dbq1p6qKIH94W6vMfUMa-236">
          <mxGeometry relative="1" as="geometry" />
        </mxCell>
        <mxCell id="dbq1p6qKIH94W6vMfUMa-238" value="&lt;h1&gt;&lt;span style=&quot;font-size: 20px;&quot;&gt;merparam&lt;/span&gt;&lt;/h1&gt;&lt;div&gt;parameters for mercator metric coords&lt;br&gt;&lt;/div&gt;" style="text;html=1;strokeColor=#B20000;fillColor=#e51400;spacing=5;spacingTop=-20;whiteSpace=wrap;overflow=hidden;rounded=0;fontColor=#ffffff;" vertex="1" parent="1">
          <mxGeometry x="-132" y="4080.5" width="248" height="80" as="geometry" />
        </mxCell>
        <mxCell id="dbq1p6qKIH94W6vMfUMa-241" value="&lt;h1&gt;&lt;span style=&quot;font-size: 20px;&quot;&gt;hsmoot&lt;/span&gt;&lt;/h1&gt;&lt;div&gt;smooth the bathymetry - slmin = max bottom slope&lt;br&gt;&lt;/div&gt;" style="text;html=1;strokeColor=#B20000;fillColor=#e51400;spacing=5;spacingTop=-20;whiteSpace=wrap;overflow=hidden;rounded=0;fontColor=#ffffff;" vertex="1" parent="1">
          <mxGeometry x="-514" y="4080.5" width="248" height="80" as="geometry" />
        </mxCell>
        <mxCell id="dbq1p6qKIH94W6vMfUMa-242" value="&lt;h1&gt;readsstfcts&lt;/h1&gt;&lt;div&gt;read forecast SST data and interpolate to Medslik grid&lt;br&gt;&lt;/div&gt;" style="text;html=1;strokeColor=#001DBC;fillColor=#0050ef;spacing=5;spacingTop=-20;whiteSpace=wrap;overflow=hidden;rounded=0;fontColor=#ffffff;" vertex="1" parent="1">
          <mxGeometry x="-514" y="4230" width="248" height="80" as="geometry" />
        </mxCell>
        <mxCell id="dbq1p6qKIH94W6vMfUMa-246" style="edgeStyle=orthogonalEdgeStyle;rounded=0;orthogonalLoop=1;jettySize=auto;html=1;entryX=0.5;entryY=1;entryDx=0;entryDy=0;" edge="1" parent="1" source="dbq1p6qKIH94W6vMfUMa-243" target="dbq1p6qKIH94W6vMfUMa-49">
          <mxGeometry relative="1" as="geometry" />
        </mxCell>
        <mxCell id="dbq1p6qKIH94W6vMfUMa-243" value="&lt;h1&gt;&lt;span style=&quot;font-size: 20px;&quot;&gt;readsat&lt;/span&gt;&lt;/h1&gt;&lt;div&gt;reads satellite contour&lt;br&gt;&lt;/div&gt;" style="text;html=1;strokeColor=#B20000;fillColor=#e51400;spacing=5;spacingTop=-20;whiteSpace=wrap;overflow=hidden;rounded=0;fontColor=#ffffff;" vertex="1" parent="1">
          <mxGeometry x="1923" y="4105" width="248" height="80" as="geometry" />
        </mxCell>
        <mxCell id="dbq1p6qKIH94W6vMfUMa-96" value="" style="rounded=0;whiteSpace=wrap;html=1;" vertex="1" parent="1">
          <mxGeometry x="-361" y="3391" width="290" height="280" as="geometry" />
        </mxCell>
        <mxCell id="dbq1p6qKIH94W6vMfUMa-23" value="Environmental dimensions" style="rounded=0;whiteSpace=wrap;html=1;" vertex="1" parent="1">
          <mxGeometry x="-353.5" y="3411" width="120" height="60" as="geometry" />
        </mxCell>
        <mxCell id="dbq1p6qKIH94W6vMfUMa-24" value="Oil Slick&lt;br&gt;dimensions" style="rounded=0;whiteSpace=wrap;html=1;" vertex="1" parent="1">
          <mxGeometry x="-203.5" y="3411" width="120" height="60" as="geometry" />
        </mxCell>
        <mxCell id="dbq1p6qKIH94W6vMfUMa-25" value="common &lt;br&gt;declarations" style="rounded=0;whiteSpace=wrap;html=1;" vertex="1" parent="1">
          <mxGeometry x="-353.5" y="3511" width="120" height="60" as="geometry" />
        </mxCell>
        <mxCell id="dbq1p6qKIH94W6vMfUMa-26" value="declarations for oil and spill&lt;br&gt;characteristics" style="rounded=0;whiteSpace=wrap;html=1;" vertex="1" parent="1">
          <mxGeometry x="-203.5" y="3511" width="120" height="60" as="geometry" />
        </mxCell>
        <mxCell id="dbq1p6qKIH94W6vMfUMa-27" value="Declaring netcdf variables and dimensions" style="rounded=0;whiteSpace=wrap;html=1;" vertex="1" parent="1">
          <mxGeometry x="-276" y="3591" width="120" height="60" as="geometry" />
        </mxCell>
        <mxCell id="dbq1p6qKIH94W6vMfUMa-102" value="" style="rounded=0;whiteSpace=wrap;html=1;" vertex="1" parent="1">
          <mxGeometry x="-5" y="3520" width="290" height="190" as="geometry" />
        </mxCell>
        <mxCell id="dbq1p6qKIH94W6vMfUMa-34" value="Physical parameters" style="shape=parallelogram;perimeter=parallelogramPerimeter;whiteSpace=wrap;html=1;fixedSize=1;" vertex="1" parent="1">
          <mxGeometry x="58" y="3545" width="90" height="50" as="geometry" />
        </mxCell>
        <mxCell id="dbq1p6qKIH94W6vMfUMa-35" value="evaporation&lt;br&gt;constants" style="shape=parallelogram;perimeter=parallelogramPerimeter;whiteSpace=wrap;html=1;fixedSize=1;" vertex="1" parent="1">
          <mxGeometry x="-5" y="3620" width="90" height="50" as="geometry" />
        </mxCell>
        <mxCell id="dbq1p6qKIH94W6vMfUMa-36" value="emulsion&lt;br&gt;constants" style="shape=parallelogram;perimeter=parallelogramPerimeter;whiteSpace=wrap;html=1;fixedSize=1;" vertex="1" parent="1">
          <mxGeometry x="89" y="3620" width="90" height="50" as="geometry" />
        </mxCell>
        <mxCell id="dbq1p6qKIH94W6vMfUMa-37" value="dispersion&lt;br&gt;constants" style="shape=parallelogram;perimeter=parallelogramPerimeter;whiteSpace=wrap;html=1;fixedSize=1;" vertex="1" parent="1">
          <mxGeometry x="165" y="3545" width="90" height="50" as="geometry" />
        </mxCell>
        <mxCell id="dbq1p6qKIH94W6vMfUMa-38" value="spreading&lt;br&gt;constants" style="shape=parallelogram;perimeter=parallelogramPerimeter;whiteSpace=wrap;html=1;fixedSize=1;" vertex="1" parent="1">
          <mxGeometry x="185" y="3620" width="90" height="50" as="geometry" />
        </mxCell>
        <mxCell id="dbq1p6qKIH94W6vMfUMa-99" value="" style="rounded=0;whiteSpace=wrap;html=1;" vertex="1" parent="1">
          <mxGeometry x="175" y="3370" width="270" height="100" as="geometry" />
        </mxCell>
        <mxCell id="dbq1p6qKIH94W6vMfUMa-45" value="Current files&amp;nbsp;&lt;br&gt;(.mrc)" style="rounded=0;whiteSpace=wrap;html=1;" vertex="1" parent="1">
          <mxGeometry x="189" y="3390" width="120" height="60" as="geometry" />
        </mxCell>
        <mxCell id="dbq1p6qKIH94W6vMfUMa-46" value="Wind files&lt;br&gt;(.eri)" style="rounded=0;whiteSpace=wrap;html=1;" vertex="1" parent="1">
          <mxGeometry x="316" y="3390" width="120" height="60" as="geometry" />
        </mxCell>
        <mxCell id="dbq1p6qKIH94W6vMfUMa-124" value="" style="rounded=0;whiteSpace=wrap;html=1;" vertex="1" parent="1">
          <mxGeometry x="393.5" y="3507" width="270" height="100" as="geometry" />
        </mxCell>
        <mxCell id="dbq1p6qKIH94W6vMfUMa-47" value="Grid parameters and bathymetry&lt;br&gt;(.map)" style="rounded=0;whiteSpace=wrap;html=1;" vertex="1" parent="1">
          <mxGeometry x="405.5" y="3530" width="120" height="60" as="geometry" />
        </mxCell>
        <mxCell id="dbq1p6qKIH94W6vMfUMa-48" value="Horizontal and vertical diffusion&lt;br&gt;check stability" style="rounded=0;whiteSpace=wrap;html=1;" vertex="1" parent="1">
          <mxGeometry x="532.5" y="3530" width="120" height="60" as="geometry" />
        </mxCell>
        <mxCell id="dbq1p6qKIH94W6vMfUMa-245" value="if satellite" style="rhombus;whiteSpace=wrap;html=1;" vertex="1" parent="1">
          <mxGeometry x="701.5" y="3210" width="152.5" height="120" as="geometry" />
        </mxCell>
      </root>
    </mxGraphModel>
  </diagram>
</mxfile>
